<svg width="468" height="325" viewBox="0 0 468 325" fill="none" xmlns="http://www.w3.org/2000/svg">
          <path d="M12.6445 204H48.4844V155.465H65.0859C65.4115 155.465 65.7044 155.465 65.9648 155.465C66.2904 155.465 66.5508 155.465 66.7461 155.465L90.8672 204H131.199L103.074 150.191C110.366 146.936 116.193 141.695 120.555 134.469C124.917 127.242 127.098 119.104 127.098 110.055V109.859C127.098 99.8984 125.014 91.4349 120.848 84.4688C116.681 77.5026 110.626 72.1966 102.684 68.5508C94.7409 64.9049 85.0729 63.082 73.6797 63.082H12.6445V204ZM48.4844 129.488V90.1328H69.4805C75.7956 90.1328 80.8737 91.9232 84.7148 95.5039C88.556 99.0846 90.4766 103.837 90.4766 109.762V109.957C90.4766 115.882 88.5885 120.634 84.8125 124.215C81.1016 127.73 76.056 129.488 69.6758 129.488H48.4844ZM163.133 162.789H205.125C215.607 162.789 224.721 160.771 232.469 156.734C240.216 152.633 246.206 146.871 250.438 139.449C254.734 131.962 256.883 123.206 256.883 113.18V112.984C256.883 102.893 254.734 94.1367 250.438 86.7148C246.206 79.2279 240.216 73.4336 232.469 69.332C224.721 65.1654 215.607 63.082 205.125 63.082H163.133V90.6211H196.531C204.083 90.6211 209.975 92.5091 214.207 96.2852C218.504 100.061 220.652 105.628 220.652 112.984V113.18C220.652 120.471 218.504 126.038 214.207 129.879C209.975 133.72 204.083 135.641 196.531 135.641H163.133V162.789ZM145.066 204H180.906V63.082H145.066V204ZM272.801 204H366.941V175.191H308.641V63.082H272.801V204Z" fill="#EDC52F"/>
          <path d="M435.12 72.22C434.533 67.9667 434.093 65.1067 433.8 63.64C433.507 62.0267 432.04 61.22 429.4 61.22C426.76 61.22 424.78 61.88 423.46 63.2C422.14 64.3733 420.38 67.16 418.18 71.56L362.96 183.32C361.64 186.107 360.1 188.16 358.34 189.48C356.433 190.8 354.747 191.9 353.28 192.78C351.667 193.66 350.347 194.54 349.32 195.42C348.147 196.3 347.56 197.62 347.56 199.38C347.56 200.993 348.073 202.093 349.1 202.68C349.98 203.12 351.373 203.34 353.28 203.34C354.6 203.34 356.287 203.267 358.34 203.12C360.393 202.827 362.887 202.68 365.82 202.68C369.487 202.68 372.493 202.827 374.84 203.12C377.333 203.267 379.313 203.34 380.78 203.34H382.1C386.06 203.34 388.04 201.873 388.04 198.94C388.04 197.327 387.307 196.227 385.84 195.64C384.373 194.907 382.76 194.247 381 193.66C379.387 192.927 377.847 192.047 376.38 191.02C374.913 189.993 374.18 188.38 374.18 186.18C374.18 185.593 374.327 184.493 374.62 182.88C375.06 181.12 375.867 178.92 377.04 176.28L385.18 157.14H418.4L421.48 180.9C421.773 182.367 421.92 183.54 421.92 184.42C421.92 185.3 421.92 185.887 421.92 186.18C421.92 190.287 419.867 192.78 415.76 193.66C413.267 194.1 411.287 194.833 409.82 195.86C408.353 196.74 407.62 198.353 407.62 200.7C407.62 203.047 409.6 204.22 413.56 204.22C415.027 204.22 417.887 204 422.14 203.56C426.393 202.973 432.187 202.68 439.52 202.68C443.627 202.68 446.78 202.827 448.98 203.12C451.18 203.413 452.647 203.56 453.38 203.56C457.047 203.56 458.88 201.947 458.88 198.72C458.88 197.107 458.44 196.08 457.56 195.64C456.827 195.053 455.947 194.467 454.92 193.88C453.893 193.147 452.867 192.12 451.84 190.8C450.813 189.48 450.08 187.133 449.64 183.76L435.12 72.22ZM411.58 101.7L416.86 145.7H390.02C393.247 138.66 396.62 131.547 400.14 124.36C403.66 117.027 407.473 109.473 411.58 101.7Z" fill="#EDC52F"/>
          <path d="M435.12 72.22L438.095 71.8327L438.093 71.8214L438.092 71.8101L435.12 72.22ZM433.8 63.64L430.848 64.1766L430.853 64.2025L430.858 64.2283L433.8 63.64ZM423.46 63.2L425.453 65.4422L425.519 65.3836L425.581 65.3213L423.46 63.2ZM418.18 71.56L415.497 70.2183L415.494 70.2247L415.49 70.2311L418.18 71.56ZM362.96 183.32L360.27 181.991L360.259 182.013L360.249 182.036L362.96 183.32ZM358.34 189.48L360.048 191.947L360.094 191.914L360.14 191.88L358.34 189.48ZM353.28 192.78L354.717 195.414L354.771 195.384L354.823 195.352L353.28 192.78ZM349.32 195.42L351.12 197.82L351.198 197.761L351.272 197.698L349.32 195.42ZM349.1 202.68L347.612 205.285L347.684 205.326L347.758 205.363L349.1 202.68ZM358.34 203.12L358.554 206.112L358.659 206.105L358.764 206.09L358.34 203.12ZM374.84 203.12L374.468 206.097L374.566 206.109L374.664 206.115L374.84 203.12ZM385.84 195.64L384.498 198.323L384.61 198.379L384.726 198.425L385.84 195.64ZM381 193.66L379.759 196.391L379.902 196.456L380.051 196.506L381 193.66ZM376.38 191.02L378.1 188.562L378.1 188.562L376.38 191.02ZM374.62 182.88L371.71 182.152L371.686 182.247L371.668 182.343L374.62 182.88ZM377.04 176.28L379.781 177.498L379.791 177.476L379.801 177.454L377.04 176.28ZM385.18 157.14V154.14H383.196L382.419 155.966L385.18 157.14ZM418.4 157.14L421.375 156.754L421.036 154.14H418.4V157.14ZM421.48 180.9L418.505 181.286L418.518 181.388L418.538 181.488L421.48 180.9ZM415.76 193.66L416.281 196.614L416.335 196.605L416.389 196.593L415.76 193.66ZM409.82 195.86L411.363 198.432L411.454 198.378L411.54 198.318L409.82 195.86ZM422.14 203.56L422.449 206.544L422.499 206.539L422.55 206.532L422.14 203.56ZM448.98 203.12L448.584 206.094L448.584 206.094L448.98 203.12ZM457.56 195.64L455.686 197.983L455.934 198.181L456.218 198.323L457.56 195.64ZM454.92 193.88L453.176 196.321L453.3 196.409L453.432 196.485L454.92 193.88ZM451.84 190.8L449.472 192.642L449.472 192.642L451.84 190.8ZM449.64 183.76L446.665 184.147L446.665 184.148L449.64 183.76ZM411.58 101.7L414.559 101.343L413.414 91.8058L408.927 100.299L411.58 101.7ZM416.86 145.7V148.7H420.242L419.839 145.343L416.86 145.7ZM390.02 145.7L387.293 144.45L385.345 148.7H390.02V145.7ZM400.14 124.36L402.834 125.68L402.839 125.669L402.845 125.658L400.14 124.36ZM438.092 71.8101C437.507 67.5688 437.056 64.6209 436.742 63.0516L430.858 64.2283C431.131 65.5925 431.56 68.3646 432.148 72.6299L438.092 71.8101ZM436.752 63.1033C436.44 61.387 435.431 60.0244 433.926 59.1963C432.565 58.4479 430.962 58.22 429.4 58.22V64.22C429.914 64.22 430.301 64.2598 430.582 64.315C430.864 64.3704 430.997 64.433 431.034 64.4536C431.061 64.4682 431.002 64.4401 430.934 64.3458C430.864 64.2497 430.848 64.1737 430.848 64.1766L436.752 63.1033ZM429.4 58.22C426.298 58.22 423.42 58.9976 421.339 61.0787L425.581 65.3213C426.14 64.7623 427.222 64.22 429.4 64.22V58.22ZM421.467 60.9578C420.487 61.8286 419.538 63.1046 418.614 64.568C417.661 66.0757 416.622 67.968 415.497 70.2183L420.863 72.9016C421.938 70.752 422.879 69.0509 423.686 67.772C424.522 66.4487 425.113 65.7448 425.453 65.4422L421.467 60.9578ZM415.49 70.2311L360.27 181.991L365.65 184.649L420.87 72.8889L415.49 70.2311ZM360.249 182.036C359.058 184.549 357.785 186.146 356.54 187.08L360.14 191.88C362.415 190.174 364.222 187.665 365.671 184.604L360.249 182.036ZM356.632 187.013C354.762 188.308 353.132 189.37 351.737 190.208L354.823 195.352C356.362 194.43 358.105 193.292 360.048 191.947L356.632 187.013ZM351.843 190.146C350.107 191.093 348.598 192.087 347.368 193.142L351.272 197.698C352.095 196.993 353.226 196.227 354.717 195.414L351.843 190.146ZM347.52 193.02C345.436 194.583 344.56 196.888 344.56 199.38H350.56C350.56 198.352 350.857 198.017 351.12 197.82L347.52 193.02ZM344.56 199.38C344.56 201.626 345.32 203.975 347.612 205.285L350.588 200.075C350.593 200.078 350.616 200.093 350.642 200.121C350.667 200.148 350.671 200.163 350.664 200.146C350.643 200.102 350.56 199.886 350.56 199.38H344.56ZM347.758 205.363C349.287 206.128 351.266 206.34 353.28 206.34V200.34C351.481 200.34 350.673 200.112 350.442 199.997L347.758 205.363ZM353.28 206.34C354.699 206.34 356.464 206.262 358.554 206.112L358.126 200.128C356.11 200.272 354.501 200.34 353.28 200.34V206.34ZM358.764 206.09C360.633 205.823 362.976 205.68 365.82 205.68V199.68C362.798 199.68 360.154 199.83 357.916 200.15L358.764 206.09ZM365.82 205.68C369.422 205.68 372.292 205.825 374.468 206.097L375.212 200.143C372.694 199.828 369.551 199.68 365.82 199.68V205.68ZM374.664 206.115C377.181 206.263 379.228 206.34 380.78 206.34V200.34C379.399 200.34 377.485 200.27 375.016 200.125L374.664 206.115ZM380.78 206.34H382.1V200.34H380.78V206.34ZM382.1 206.34C384.363 206.34 386.605 205.937 388.341 204.651C390.245 203.24 391.04 201.153 391.04 198.94H385.04C385.04 199.339 384.973 199.545 384.933 199.634C384.901 199.706 384.861 199.761 384.769 199.829C384.525 200.01 383.797 200.34 382.1 200.34V206.34ZM391.04 198.94C391.04 197.673 390.748 196.383 389.986 195.241C389.222 194.094 388.139 193.329 386.954 192.855L384.726 198.425C384.873 198.484 384.948 198.534 384.977 198.557C385.004 198.577 385.002 198.581 384.994 198.569C384.966 198.527 385.04 198.594 385.04 198.94H391.04ZM387.182 192.957C385.573 192.152 383.826 191.44 381.949 190.814L380.051 196.506C381.694 197.054 383.174 197.661 384.498 198.323L387.182 192.957ZM382.241 190.929C380.798 190.273 379.418 189.484 378.1 188.562L374.66 193.478C376.276 194.609 377.976 195.581 379.759 196.391L382.241 190.929ZM378.1 188.562C377.623 188.228 377.18 187.654 377.18 186.18H371.18C371.18 189.106 372.204 191.759 374.66 193.478L378.1 188.562ZM377.18 186.18C377.18 185.904 377.273 185.061 377.572 183.417L371.668 182.343C371.381 183.926 371.18 185.283 371.18 186.18H377.18ZM377.53 183.608C377.911 182.084 378.642 180.061 379.781 177.498L374.299 175.062C373.091 177.779 372.209 180.156 371.71 182.152L377.53 183.608ZM379.801 177.454L387.941 158.314L382.419 155.966L374.279 175.106L379.801 177.454ZM385.18 160.14H418.4V154.14H385.18V160.14ZM415.425 157.526L418.505 181.286L424.455 180.514L421.375 156.754L415.425 157.526ZM418.538 181.488C418.816 182.876 418.92 183.827 418.92 184.42H424.92C424.92 183.253 424.731 181.858 424.422 180.312L418.538 181.488ZM418.92 184.42C418.92 184.422 418.92 184.423 418.92 184.425C418.92 184.427 418.92 184.429 418.92 184.43C418.92 184.432 418.92 184.434 418.92 184.435C418.92 184.437 418.92 184.439 418.92 184.441C418.92 184.442 418.92 184.444 418.92 184.446C418.92 184.447 418.92 184.449 418.92 184.451C418.92 184.453 418.92 184.454 418.92 184.456C418.92 184.458 418.92 184.459 418.92 184.461C418.92 184.463 418.92 184.464 418.92 184.466C418.92 184.468 418.92 184.47 418.92 184.471C418.92 184.473 418.92 184.475 418.92 184.476C418.92 184.478 418.92 184.48 418.92 184.481C418.92 184.483 418.92 184.485 418.92 184.486C418.92 184.488 418.92 184.49 418.92 184.492C418.92 184.493 418.92 184.495 418.92 184.497C418.92 184.498 418.92 184.5 418.92 184.502C418.92 184.503 418.92 184.505 418.92 184.507C418.92 184.508 418.92 184.51 418.92 184.512C418.92 184.513 418.92 184.515 418.92 184.517C418.92 184.518 418.92 184.52 418.92 184.522C418.92 184.523 418.92 184.525 418.92 184.527C418.92 184.528 418.92 184.53 418.92 184.532C418.92 184.533 418.92 184.535 418.92 184.537C418.92 184.538 418.92 184.54 418.92 184.542C418.92 184.543 418.92 184.545 418.92 184.547C418.92 184.548 418.92 184.55 418.92 184.552C418.92 184.553 418.92 184.555 418.92 184.557C418.92 184.558 418.92 184.56 418.92 184.562C418.92 184.563 418.92 184.565 418.92 184.567C418.92 184.568 418.92 184.57 418.92 184.572C418.92 184.573 418.92 184.575 418.92 184.577C418.92 184.578 418.92 184.58 418.92 184.582C418.92 184.583 418.92 184.585 418.92 184.587C418.92 184.588 418.92 184.59 418.92 184.591C418.92 184.593 418.92 184.595 418.92 184.596C418.92 184.598 418.92 184.6 418.92 184.601C418.92 184.603 418.92 184.605 418.92 184.606C418.92 184.608 418.92 184.609 418.92 184.611C418.92 184.613 418.92 184.614 418.92 184.616C418.92 184.618 418.92 184.619 418.92 184.621C418.92 184.623 418.92 184.624 418.92 184.626C418.92 184.627 418.92 184.629 418.92 184.631C418.92 184.632 418.92 184.634 418.92 184.636C418.92 184.637 418.92 184.639 418.92 184.64C418.92 184.642 418.92 184.644 418.92 184.645C418.92 184.647 418.92 184.648 418.92 184.65C418.92 184.652 418.92 184.653 418.92 184.655C418.92 184.657 418.92 184.658 418.92 184.66C418.92 184.661 418.92 184.663 418.92 184.665C418.92 184.666 418.92 184.668 418.92 184.669C418.92 184.671 418.92 184.673 418.92 184.674C418.92 184.676 418.92 184.677 418.92 184.679C418.92 184.681 418.92 184.682 418.92 184.684C418.92 184.685 418.92 184.687 418.92 184.689C418.92 184.69 418.92 184.692 418.92 184.693C418.92 184.695 418.92 184.697 418.92 184.698C418.92 184.7 418.92 184.701 418.92 184.703C418.92 184.705 418.92 184.706 418.92 184.708C418.92 184.709 418.92 184.711 418.92 184.713C418.92 184.714 418.92 184.716 418.92 184.717C418.92 184.719 418.92 184.72 418.92 184.722C418.92 184.724 418.92 184.725 418.92 184.727C418.92 184.728 418.92 184.73 418.92 184.732C418.92 184.733 418.92 184.735 418.92 184.736C418.92 184.738 418.92 184.739 418.92 184.741C418.92 184.743 418.92 184.744 418.92 184.746C418.92 184.747 418.92 184.749 418.92 184.75C418.92 184.752 418.92 184.754 418.92 184.755C418.92 184.757 418.92 184.758 418.92 184.76C418.92 184.761 418.92 184.763 418.92 184.764C418.92 184.766 418.92 184.768 418.92 184.769C418.92 184.771 418.92 184.772 418.92 184.774C418.92 184.775 418.92 184.777 418.92 184.779C418.92 184.78 418.92 184.782 418.92 184.783C418.92 184.785 418.92 184.786 418.92 184.788C418.92 184.789 418.92 184.791 418.92 184.792C418.92 184.794 418.92 184.796 418.92 184.797C418.92 184.799 418.92 184.8 418.92 184.802C418.92 184.803 418.92 184.805 418.92 184.806C418.92 184.808 418.92 184.809 418.92 184.811C418.92 184.813 418.92 184.814 418.92 184.816C418.92 184.817 418.92 184.819 418.92 184.82C418.92 184.822 418.92 184.823 418.92 184.825C418.92 184.826 418.92 184.828 418.92 184.829C418.92 184.831 418.92 184.832 418.92 184.834C418.92 184.836 418.92 184.837 418.92 184.839C418.92 184.84 418.92 184.842 418.92 184.843C418.92 184.845 418.92 184.846 418.92 184.848C418.92 184.849 418.92 184.851 418.92 184.852C418.92 184.854 418.92 184.855 418.92 184.857C418.92 184.858 418.92 184.86 418.92 184.861C418.92 184.863 418.92 184.864 418.92 184.866C418.92 184.867 418.92 184.869 418.92 184.87C418.92 184.872 418.92 184.874 418.92 184.875C418.92 184.877 418.92 184.878 418.92 184.88C418.92 184.881 418.92 184.883 418.92 184.884C418.92 184.886 418.92 184.887 418.92 184.889C418.92 184.89 418.92 184.892 418.92 184.893C418.92 184.895 418.92 184.896 418.92 184.898C418.92 184.899 418.92 184.901 418.92 184.902C418.92 184.904 418.92 184.905 418.92 184.907C418.92 184.908 418.92 184.91 418.92 184.911C418.92 184.913 418.92 184.914 418.92 184.915C418.92 184.917 418.92 184.918 418.92 184.92C418.92 184.921 418.92 184.923 418.92 184.924C418.92 184.926 418.92 184.927 418.92 184.929C418.92 184.93 418.92 184.932 418.92 184.933C418.92 184.935 418.92 184.936 418.92 184.938C418.92 184.939 418.92 184.941 418.92 184.942C418.92 184.944 418.92 184.945 418.92 184.947C418.92 184.948 418.92 184.95 418.92 184.951C418.92 184.952 418.92 184.954 418.92 184.955C418.92 184.957 418.92 184.958 418.92 184.96C418.92 184.961 418.92 184.963 418.92 184.964C418.92 184.966 418.92 184.967 418.92 184.969C418.92 184.97 418.92 184.971 418.92 184.973C418.92 184.974 418.92 184.976 418.92 184.977C418.92 184.979 418.92 184.98 418.92 184.982C418.92 184.983 418.92 184.985 418.92 184.986C418.92 184.988 418.92 184.989 418.92 184.99C418.92 184.992 418.92 184.993 418.92 184.995C418.92 184.996 418.92 184.998 418.92 184.999C418.92 185.001 418.92 185.002 418.92 185.003C418.92 185.005 418.92 185.006 418.92 185.008C418.92 185.009 418.92 185.011 418.92 185.012C418.92 185.014 418.92 185.015 418.92 185.016C418.92 185.018 418.92 185.019 418.92 185.021C418.92 185.022 418.92 185.024 418.92 185.025C418.92 185.026 418.92 185.028 418.92 185.029C418.92 185.031 418.92 185.032 418.92 185.034C418.92 185.035 418.92 185.036 418.92 185.038C418.92 185.039 418.92 185.041 418.92 185.042C418.92 185.044 418.92 185.045 418.92 185.046C418.92 185.048 418.92 185.049 418.92 185.051C418.92 185.052 418.92 185.053 418.92 185.055C418.92 185.056 418.92 185.058 418.92 185.059C418.92 185.061 418.92 185.062 418.92 185.063C418.92 185.065 418.92 185.066 418.92 185.068C418.92 185.069 418.92 185.07 418.92 185.072C418.92 185.073 418.92 185.075 418.92 185.076C418.92 185.077 418.92 185.079 418.92 185.08C418.92 185.082 418.92 185.083 418.92 185.084C418.92 185.086 418.92 185.087 418.92 185.089C418.92 185.09 418.92 185.091 418.92 185.093C418.92 185.094 418.92 185.096 418.92 185.097C418.92 185.098 418.92 185.1 418.92 185.101C418.92 185.103 418.92 185.104 418.92 185.105C418.92 185.107 418.92 185.108 418.92 185.11C418.92 185.111 418.92 185.112 418.92 185.114C418.92 185.115 418.92 185.117 418.92 185.118C418.92 185.119 418.92 185.121 418.92 185.122C418.92 185.123 418.92 185.125 418.92 185.126C418.92 185.128 418.92 185.129 418.92 185.13C418.92 185.132 418.92 185.133 418.92 185.134C418.92 185.136 418.92 185.137 418.92 185.139C418.92 185.14 418.92 185.141 418.92 185.143C418.92 185.144 418.92 185.145 418.92 185.147C418.92 185.148 418.92 185.15 418.92 185.151C418.92 185.152 418.92 185.154 418.92 185.155C418.92 185.156 418.92 185.158 418.92 185.159C418.92 185.16 418.92 185.162 418.92 185.163C418.92 185.164 418.92 185.166 418.92 185.167C418.92 185.169 418.92 185.17 418.92 185.171C418.92 185.173 418.92 185.174 418.92 185.175C418.92 185.177 418.92 185.178 418.92 185.179C418.92 185.181 418.92 185.182 418.92 185.183C418.92 185.185 418.92 185.186 418.92 185.187C418.92 185.189 418.92 185.19 418.92 185.192C418.92 185.193 418.92 185.194 418.92 185.196C418.92 185.197 418.92 185.198 418.92 185.2C418.92 185.201 418.92 185.202 418.92 185.204C418.92 185.205 418.92 185.206 418.92 185.208C418.92 185.209 418.92 185.21 418.92 185.212C418.92 185.213 418.92 185.214 418.92 185.216C418.92 185.217 418.92 185.218 418.92 185.22C418.92 185.221 418.92 185.222 418.92 185.224C418.92 185.225 418.92 185.226 418.92 185.227C418.92 185.229 418.92 185.23 418.92 185.231C418.92 185.233 418.92 185.234 418.92 185.235C418.92 185.237 418.92 185.238 418.92 185.239C418.92 185.241 418.92 185.242 418.92 185.243C418.92 185.245 418.92 185.246 418.92 185.247C418.92 185.249 418.92 185.25 418.92 185.251C418.92 185.252 418.92 185.254 418.92 185.255C418.92 185.256 418.92 185.258 418.92 185.259C418.92 185.26 418.92 185.262 418.92 185.263C418.92 185.264 418.92 185.266 418.92 185.267C418.92 185.268 418.92 185.269 418.92 185.271C418.92 185.272 418.92 185.273 418.92 185.275C418.92 185.276 418.92 185.277 418.92 185.279C418.92 185.28 418.92 185.281 418.92 185.282C418.92 185.284 418.92 185.285 418.92 185.286C418.92 185.288 418.92 185.289 418.92 185.29C418.92 185.291 418.92 185.293 418.92 185.294C418.92 185.295 418.92 185.297 418.92 185.298C418.92 185.299 418.92 185.3 418.92 185.302C418.92 185.303 418.92 185.304 418.92 185.306C418.92 185.307 418.92 185.308 418.92 185.309C418.92 185.311 418.92 185.312 418.92 185.313C418.92 185.314 418.92 185.316 418.92 185.317C418.92 185.318 418.92 185.32 418.92 185.321C418.92 185.322 418.92 185.323 418.92 185.325C418.92 185.326 418.92 185.327 418.92 185.328C418.92 185.33 418.92 185.331 418.92 185.332C418.92 185.333 418.92 185.335 418.92 185.336C418.92 185.337 418.92 185.338 418.92 185.34C418.92 185.341 418.92 185.342 418.92 185.344C418.92 185.345 418.92 185.346 418.92 185.347C418.92 185.349 418.92 185.35 418.92 185.351C418.92 185.352 418.92 185.354 418.92 185.355C418.92 185.356 418.92 185.357 418.92 185.359C418.92 185.36 418.92 185.361 418.92 185.362C418.92 185.363 418.92 185.365 418.92 185.366C418.92 185.367 418.92 185.368 418.92 185.37C418.92 185.371 418.92 185.372 418.92 185.373C418.92 185.375 418.92 185.376 418.92 185.377C418.92 185.378 418.92 185.38 418.92 185.381C418.92 185.382 418.92 185.383 418.92 185.385C418.92 185.386 418.92 185.387 418.92 185.388C418.92 185.389 418.92 185.391 418.92 185.392C418.92 185.393 418.92 185.394 418.92 185.396C418.92 185.397 418.92 185.398 418.92 185.399C418.92 185.4 418.92 185.402 418.92 185.403C418.92 185.404 418.92 185.405 418.92 185.407C418.92 185.408 418.92 185.409 418.92 185.41C418.92 185.411 418.92 185.413 418.92 185.414C418.92 185.415 418.92 185.416 418.92 185.417C418.92 185.419 418.92 185.42 418.92 185.421C418.92 185.422 418.92 185.424 418.92 185.425C418.92 185.426 418.92 185.427 418.92 185.428C418.92 185.43 418.92 185.431 418.92 185.432C418.92 185.433 418.92 185.434 418.92 185.436C418.92 185.437 418.92 185.438 418.92 185.439C418.92 185.44 418.92 185.442 418.92 185.443C418.92 185.444 418.92 185.445 418.92 185.446C418.92 185.448 418.92 185.449 418.92 185.45C418.92 185.451 418.92 185.452 418.92 185.453C418.92 185.455 418.92 185.456 418.92 185.457C418.92 185.458 418.92 185.459 418.92 185.461C418.92 185.462 418.92 185.463 418.92 185.464C418.92 185.465 418.92 185.467 418.92 185.468C418.92 185.469 418.92 185.47 418.92 185.471C418.92 185.472 418.92 185.474 418.92 185.475C418.92 185.476 418.92 185.477 418.92 185.478C418.92 185.479 418.92 185.481 418.92 185.482C418.92 185.483 418.92 185.484 418.92 185.485C418.92 185.486 418.92 185.488 418.92 185.489C418.92 185.49 418.92 185.491 418.92 185.492C418.92 185.493 418.92 185.495 418.92 185.496C418.92 185.497 418.92 185.498 418.92 185.499C418.92 185.5 418.92 185.502 418.92 185.503C418.92 185.504 418.92 185.505 418.92 185.506C418.92 185.507 418.92 185.509 418.92 185.51C418.92 185.511 418.92 185.512 418.92 185.513C418.92 185.514 418.92 185.515 418.92 185.517C418.92 185.518 418.92 185.519 418.92 185.52C418.92 185.521 418.92 185.522 418.92 185.523C418.92 185.525 418.92 185.526 418.92 185.527C418.92 185.528 418.92 185.529 418.92 185.53C418.92 185.531 418.92 185.533 418.92 185.534C418.92 185.535 418.92 185.536 418.92 185.537C418.92 185.538 418.92 185.539 418.92 185.541C418.92 185.542 418.92 185.543 418.92 185.544C418.92 185.545 418.92 185.546 418.92 185.547C418.92 185.548 418.92 185.55 418.92 185.551C418.92 185.552 418.92 185.553 418.92 185.554C418.92 185.555 418.92 185.556 418.92 185.557C418.92 185.559 418.92 185.56 418.92 185.561C418.92 185.562 418.92 185.563 418.92 185.564C418.92 185.565 418.92 185.566 418.92 185.567C418.92 185.569 418.92 185.57 418.92 185.571C418.92 185.572 418.92 185.573 418.92 185.574C418.92 185.575 418.92 185.576 418.92 185.577C418.92 185.579 418.92 185.58 418.92 185.581C418.92 185.582 418.92 185.583 418.92 185.584C418.92 185.585 418.92 185.586 418.92 185.587C418.92 185.589 418.92 185.59 418.92 185.591C418.92 185.592 418.92 185.593 418.92 185.594C418.92 185.595 418.92 185.596 418.92 185.597C418.92 185.598 418.92 185.599 418.92 185.601C418.92 185.602 418.92 185.603 418.92 185.604C418.92 185.605 418.92 185.606 418.92 185.607C418.92 185.608 418.92 185.609 418.92 185.61C418.92 185.611 418.92 185.613 418.92 185.614C418.92 185.615 418.92 185.616 418.92 185.617C418.92 185.618 418.92 185.619 418.92 185.62C418.92 185.621 418.92 185.622 418.92 185.623C418.92 185.624 418.92 185.625 418.92 185.627C418.92 185.628 418.92 185.629 418.92 185.63C418.92 185.631 418.92 185.632 418.92 185.633C418.92 185.634 418.92 185.635 418.92 185.636C418.92 185.637 418.92 185.638 418.92 185.639C418.92 185.64 418.92 185.642 418.92 185.643C418.92 185.644 418.92 185.645 418.92 185.646C418.92 185.647 418.92 185.648 418.92 185.649C418.92 185.65 418.92 185.651 418.92 185.652C418.92 185.653 418.92 185.654 418.92 185.655C418.92 185.656 418.92 185.657 418.92 185.658C418.92 185.66 418.92 185.661 418.92 185.662C418.92 185.663 418.92 185.664 418.92 185.665C418.92 185.666 418.92 185.667 418.92 185.668C418.92 185.669 418.92 185.67 418.92 185.671C418.92 185.672 418.92 185.673 418.92 185.674C418.92 185.675 418.92 185.676 418.92 185.677C418.92 185.678 418.92 185.679 418.92 185.68C418.92 185.681 418.92 185.682 418.92 185.683C418.92 185.685 418.92 185.686 418.92 185.687C418.92 185.688 418.92 185.689 418.92 185.69C418.92 185.691 418.92 185.692 418.92 185.693C418.92 185.694 418.92 185.695 418.92 185.696C418.92 185.697 418.92 185.698 418.92 185.699C418.92 185.7 418.92 185.701 418.92 185.702C418.92 185.703 418.92 185.704 418.92 185.705C418.92 185.706 418.92 185.707 418.92 185.708C418.92 185.709 418.92 185.71 418.92 185.711C418.92 185.712 418.92 185.713 418.92 185.714C418.92 185.715 418.92 185.716 418.92 185.717C418.92 185.718 418.92 185.719 418.92 185.72C418.92 185.721 418.92 185.722 418.92 185.723C418.92 185.724 418.92 185.725 418.92 185.726C418.92 185.727 418.92 185.728 418.92 185.729C418.92 185.73 418.92 185.731 418.92 185.732C418.92 185.733 418.92 185.734 418.92 185.735C418.92 185.736 418.92 185.737 418.92 185.738C418.92 185.739 418.92 185.74 418.92 185.741C418.92 185.742 418.92 185.743 418.92 185.744C418.92 185.745 418.92 185.746 418.92 185.747C418.92 185.748 418.92 185.749 418.92 185.75C418.92 185.751 418.92 185.752 418.92 185.753C418.92 185.754 418.92 185.755 418.92 185.756C418.92 185.757 418.92 185.758 418.92 185.759C418.92 185.76 418.92 185.761 418.92 185.762C418.92 185.763 418.92 185.764 418.92 185.765C418.92 185.766 418.92 185.767 418.92 185.768C418.92 185.769 418.92 185.77 418.92 185.771C418.92 185.772 418.92 185.773 418.92 185.774C418.92 185.774 418.92 185.775 418.92 185.776C418.92 185.777 418.92 185.778 418.92 185.779C418.92 185.78 418.92 185.781 418.92 185.782C418.92 185.783 418.92 185.784 418.92 185.785C418.92 185.786 418.92 185.787 418.92 185.788C418.92 185.789 418.92 185.79 418.92 185.791C418.92 185.792 418.92 185.793 418.92 185.794C418.92 185.795 418.92 185.796 418.92 185.797C418.92 185.797 418.92 185.798 418.92 185.799C418.92 185.8 418.92 185.801 418.92 185.802C418.92 185.803 418.92 185.804 418.92 185.805C418.92 185.806 418.92 185.807 418.92 185.808C418.92 185.809 418.92 185.81 418.92 185.811C418.92 185.812 418.92 185.813 418.92 185.813C418.92 185.814 418.92 185.815 418.92 185.816C418.92 185.817 418.92 185.818 418.92 185.819C418.92 185.82 418.92 185.821 418.92 185.822C418.92 185.823 418.92 185.824 418.92 185.825C418.92 185.826 418.92 185.826 418.92 185.827C418.92 185.828 418.92 185.829 418.92 185.83C418.92 185.831 418.92 185.832 418.92 185.833C418.92 185.834 418.92 185.835 418.92 185.836C418.92 185.837 418.92 185.838 418.92 185.838C418.92 185.839 418.92 185.84 418.92 185.841C418.92 185.842 418.92 185.843 418.92 185.844C418.92 185.845 418.92 185.846 418.92 185.847C418.92 185.848 418.92 185.848 418.92 185.849C418.92 185.85 418.92 185.851 418.92 185.852C418.92 185.853 418.92 185.854 418.92 185.855C418.92 185.856 418.92 185.857 418.92 185.858C418.92 185.858 418.92 185.859 418.92 185.86C418.92 185.861 418.92 185.862 418.92 185.863C418.92 185.864 418.92 185.865 418.92 185.866C418.92 185.866 418.92 185.867 418.92 185.868C418.92 185.869 418.92 185.87 418.92 185.871C418.92 185.872 418.92 185.873 418.92 185.874C418.92 185.874 418.92 185.875 418.92 185.876C418.92 185.877 418.92 185.878 418.92 185.879C418.92 185.88 418.92 185.881 418.92 185.882C418.92 185.882 418.92 185.883 418.92 185.884C418.92 185.885 418.92 185.886 418.92 185.887C418.92 185.888 418.92 185.889 418.92 185.889C418.92 185.89 418.92 185.891 418.92 185.892C418.92 185.893 418.92 185.894 418.92 185.895C418.92 185.896 418.92 185.896 418.92 185.897C418.92 185.898 418.92 185.899 418.92 185.9C418.92 185.901 418.92 185.902 418.92 185.902C418.92 185.903 418.92 185.904 418.92 185.905C418.92 185.906 418.92 185.907 418.92 185.908C418.92 185.908 418.92 185.909 418.92 185.91C418.92 185.911 418.92 185.912 418.92 185.913C418.92 185.914 418.92 185.914 418.92 185.915C418.92 185.916 418.92 185.917 418.92 185.918C418.92 185.919 418.92 185.92 418.92 185.92C418.92 185.921 418.92 185.922 418.92 185.923C418.92 185.924 418.92 185.925 418.92 185.925C418.92 185.926 418.92 185.927 418.92 185.928C418.92 185.929 418.92 185.93 418.92 185.93C418.92 185.931 418.92 185.932 418.92 185.933C418.92 185.934 418.92 185.935 418.92 185.935C418.92 185.936 418.92 185.937 418.92 185.938C418.92 185.939 418.92 185.94 418.92 185.94C418.92 185.941 418.92 185.942 418.92 185.943C418.92 185.944 418.92 185.945 418.92 185.945C418.92 185.946 418.92 185.947 418.92 185.948C418.92 185.949 418.92 185.949 418.92 185.95C418.92 185.951 418.92 185.952 418.92 185.953C418.92 185.954 418.92 185.954 418.92 185.955C418.92 185.956 418.92 185.957 418.92 185.958C418.92 185.958 418.92 185.959 418.92 185.96C418.92 185.961 418.92 185.962 418.92 185.963C418.92 185.963 418.92 185.964 418.92 185.965C418.92 185.966 418.92 185.967 418.92 185.967C418.92 185.968 418.92 185.969 418.92 185.97C418.92 185.971 418.92 185.971 418.92 185.972C418.92 185.973 418.92 185.974 418.92 185.975C418.92 185.975 418.92 185.976 418.92 185.977C418.92 185.978 418.92 185.979 418.92 185.979C418.92 185.98 418.92 185.981 418.92 185.982C418.92 185.982 418.92 185.983 418.92 185.984C418.92 185.985 418.92 185.986 418.92 185.986C418.92 185.987 418.92 185.988 418.92 185.989C418.92 185.99 418.92 185.99 418.92 185.991C418.92 185.992 418.92 185.993 418.92 185.993C418.92 185.994 418.92 185.995 418.92 185.996C418.92 185.997 418.92 185.997 418.92 185.998C418.92 185.999 418.92 186 418.92 186C418.92 186.001 418.92 186.002 418.92 186.003C418.92 186.004 418.92 186.004 418.92 186.005C418.92 186.006 418.92 186.007 418.92 186.007C418.92 186.008 418.92 186.009 418.92 186.01C418.92 186.01 418.92 186.011 418.92 186.012C418.92 186.013 418.92 186.013 418.92 186.014C418.92 186.015 418.92 186.016 418.92 186.016C418.92 186.017 418.92 186.018 418.92 186.019C418.92 186.02 418.92 186.02 418.92 186.021C418.92 186.022 418.92 186.023 418.92 186.023C418.92 186.024 418.92 186.025 418.92 186.026C418.92 186.026 418.92 186.027 418.92 186.028C418.92 186.028 418.92 186.029 418.92 186.03C418.92 186.031 418.92 186.031 418.92 186.032C418.92 186.033 418.92 186.034 418.92 186.034C418.92 186.035 418.92 186.036 418.92 186.037C418.92 186.037 418.92 186.038 418.92 186.039C418.92 186.04 418.92 186.04 418.92 186.041C418.92 186.042 418.92 186.043 418.92 186.043C418.92 186.044 418.92 186.045 418.92 186.045C418.92 186.046 418.92 186.047 418.92 186.048C418.92 186.048 418.92 186.049 418.92 186.05C418.92 186.05 418.92 186.051 418.92 186.052C418.92 186.053 418.92 186.053 418.92 186.054C418.92 186.055 418.92 186.056 418.92 186.056C418.92 186.057 418.92 186.058 418.92 186.058C418.92 186.059 418.92 186.06 418.92 186.061C418.92 186.061 418.92 186.062 418.92 186.063C418.92 186.063 418.92 186.064 418.92 186.065C418.92 186.065 418.92 186.066 418.92 186.067C418.92 186.068 418.92 186.068 418.92 186.069C418.92 186.07 418.92 186.07 418.92 186.071C418.92 186.072 418.92 186.073 418.92 186.073C418.92 186.074 418.92 186.075 418.92 186.075C418.92 186.076 418.92 186.077 418.92 186.077C418.92 186.078 418.92 186.079 418.92 186.079C418.92 186.08 418.92 186.081 418.92 186.082C418.92 186.082 418.92 186.083 418.92 186.084C418.92 186.084 418.92 186.085 418.92 186.086C418.92 186.086 418.92 186.087 418.92 186.088C418.92 186.088 418.92 186.089 418.92 186.09C418.92 186.09 418.92 186.091 418.92 186.092C418.92 186.092 418.92 186.093 418.92 186.094C418.92 186.095 418.92 186.095 418.92 186.096C418.92 186.097 418.92 186.097 418.92 186.098C418.92 186.099 418.92 186.099 418.92 186.1C418.92 186.101 418.92 186.101 418.92 186.102C418.92 186.103 418.92 186.103 418.92 186.104C418.92 186.105 418.92 186.105 418.92 186.106C418.92 186.107 418.92 186.107 418.92 186.108C418.92 186.109 418.92 186.109 418.92 186.11C418.92 186.11 418.92 186.111 418.92 186.112C418.92 186.112 418.92 186.113 418.92 186.114C418.92 186.114 418.92 186.115 418.92 186.116C418.92 186.116 418.92 186.117 418.92 186.118C418.92 186.118 418.92 186.119 418.92 186.12C418.92 186.12 418.92 186.121 418.92 186.122C418.92 186.122 418.92 186.123 418.92 186.123C418.92 186.124 418.92 186.125 418.92 186.125C418.92 186.126 418.92 186.127 418.92 186.127C418.92 186.128 418.92 186.129 418.92 186.129C418.92 186.13 418.92 186.131 418.92 186.131C418.92 186.132 418.92 186.132 418.92 186.133C418.92 186.134 418.92 186.134 418.92 186.135C418.92 186.136 418.92 186.136 418.92 186.137C418.92 186.137 418.92 186.138 418.92 186.139C418.92 186.139 418.92 186.14 418.92 186.141C418.92 186.141 418.92 186.142 418.92 186.142C418.92 186.143 418.92 186.144 418.92 186.144C418.92 186.145 418.92 186.146 418.92 186.146C418.92 186.147 418.92 186.147 418.92 186.148C418.92 186.149 418.92 186.149 418.92 186.15C418.92 186.15 418.92 186.151 418.92 186.152C418.92 186.152 418.92 186.153 418.92 186.153C418.92 186.154 418.92 186.155 418.92 186.155C418.92 186.156 418.92 186.156 418.92 186.157C418.92 186.158 418.92 186.158 418.92 186.159C418.92 186.159 418.92 186.16 418.92 186.161C418.92 186.161 418.92 186.162 418.92 186.162C418.92 186.163 418.92 186.164 418.92 186.164C418.92 186.165 418.92 186.165 418.92 186.166C418.92 186.167 418.92 186.167 418.92 186.168C418.92 186.168 418.92 186.169 418.92 186.17C418.92 186.17 418.92 186.171 418.92 186.171C418.92 186.172 418.92 186.172 418.92 186.173C418.92 186.174 418.92 186.174 418.92 186.175C418.92 186.175 418.92 186.176 418.92 186.177C418.92 186.177 418.92 186.178 418.92 186.178C418.92 186.179 418.92 186.179 418.92 186.18H424.92C424.92 186.179 424.92 186.179 424.92 186.178C424.92 186.178 424.92 186.177 424.92 186.177C424.92 186.176 424.92 186.175 424.92 186.175C424.92 186.174 424.92 186.174 424.92 186.173C424.92 186.172 424.92 186.172 424.92 186.171C424.92 186.171 424.92 186.17 424.92 186.17C424.92 186.169 424.92 186.168 424.92 186.168C424.92 186.167 424.92 186.167 424.92 186.166C424.92 186.165 424.92 186.165 424.92 186.164C424.92 186.164 424.92 186.163 424.92 186.162C424.92 186.162 424.92 186.161 424.92 186.161C424.92 186.16 424.92 186.159 424.92 186.159C424.92 186.158 424.92 186.158 424.92 186.157C424.92 186.156 424.92 186.156 424.92 186.155C424.92 186.155 424.92 186.154 424.92 186.153C424.92 186.153 424.92 186.152 424.92 186.152C424.92 186.151 424.92 186.15 424.92 186.15C424.92 186.149 424.92 186.149 424.92 186.148C424.92 186.147 424.92 186.147 424.92 186.146C424.92 186.146 424.92 186.145 424.92 186.144C424.92 186.144 424.92 186.143 424.92 186.142C424.92 186.142 424.92 186.141 424.92 186.141C424.92 186.14 424.92 186.139 424.92 186.139C424.92 186.138 424.92 186.137 424.92 186.137C424.92 186.136 424.92 186.136 424.92 186.135C424.92 186.134 424.92 186.134 424.92 186.133C424.92 186.132 424.92 186.132 424.92 186.131C424.92 186.131 424.92 186.13 424.92 186.129C424.92 186.129 424.92 186.128 424.92 186.127C424.92 186.127 424.92 186.126 424.92 186.125C424.92 186.125 424.92 186.124 424.92 186.123C424.92 186.123 424.92 186.122 424.92 186.122C424.92 186.121 424.92 186.12 424.92 186.12C424.92 186.119 424.92 186.118 424.92 186.118C424.92 186.117 424.92 186.116 424.92 186.116C424.92 186.115 424.92 186.114 424.92 186.114C424.92 186.113 424.92 186.112 424.92 186.112C424.92 186.111 424.92 186.11 424.92 186.11C424.92 186.109 424.92 186.109 424.92 186.108C424.92 186.107 424.92 186.107 424.92 186.106C424.92 186.105 424.92 186.105 424.92 186.104C424.92 186.103 424.92 186.103 424.92 186.102C424.92 186.101 424.92 186.101 424.92 186.1C424.92 186.099 424.92 186.099 424.92 186.098C424.92 186.097 424.92 186.097 424.92 186.096C424.92 186.095 424.92 186.095 424.92 186.094C424.92 186.093 424.92 186.092 424.92 186.092C424.92 186.091 424.92 186.09 424.92 186.09C424.92 186.089 424.92 186.088 424.92 186.088C424.92 186.087 424.92 186.086 424.92 186.086C424.92 186.085 424.92 186.084 424.92 186.084C424.92 186.083 424.92 186.082 424.92 186.082C424.92 186.081 424.92 186.08 424.92 186.079C424.92 186.079 424.92 186.078 424.92 186.077C424.92 186.077 424.92 186.076 424.92 186.075C424.92 186.075 424.92 186.074 424.92 186.073C424.92 186.073 424.92 186.072 424.92 186.071C424.92 186.07 424.92 186.07 424.92 186.069C424.92 186.068 424.92 186.068 424.92 186.067C424.92 186.066 424.92 186.065 424.92 186.065C424.92 186.064 424.92 186.063 424.92 186.063C424.92 186.062 424.92 186.061 424.92 186.061C424.92 186.06 424.92 186.059 424.92 186.058C424.92 186.058 424.92 186.057 424.92 186.056C424.92 186.056 424.92 186.055 424.92 186.054C424.92 186.053 424.92 186.053 424.92 186.052C424.92 186.051 424.92 186.05 424.92 186.05C424.92 186.049 424.92 186.048 424.92 186.048C424.92 186.047 424.92 186.046 424.92 186.045C424.92 186.045 424.92 186.044 424.92 186.043C424.92 186.043 424.92 186.042 424.92 186.041C424.92 186.04 424.92 186.04 424.92 186.039C424.92 186.038 424.92 186.037 424.92 186.037C424.92 186.036 424.92 186.035 424.92 186.034C424.92 186.034 424.92 186.033 424.92 186.032C424.92 186.031 424.92 186.031 424.92 186.03C424.92 186.029 424.92 186.028 424.92 186.028C424.92 186.027 424.92 186.026 424.92 186.026C424.92 186.025 424.92 186.024 424.92 186.023C424.92 186.023 424.92 186.022 424.92 186.021C424.92 186.02 424.92 186.02 424.92 186.019C424.92 186.018 424.92 186.017 424.92 186.016C424.92 186.016 424.92 186.015 424.92 186.014C424.92 186.013 424.92 186.013 424.92 186.012C424.92 186.011 424.92 186.01 424.92 186.01C424.92 186.009 424.92 186.008 424.92 186.007C424.92 186.007 424.92 186.006 424.92 186.005C424.92 186.004 424.92 186.004 424.92 186.003C424.92 186.002 424.92 186.001 424.92 186C424.92 186 424.92 185.999 424.92 185.998C424.92 185.997 424.92 185.997 424.92 185.996C424.92 185.995 424.92 185.994 424.92 185.993C424.92 185.993 424.92 185.992 424.92 185.991C424.92 185.99 424.92 185.99 424.92 185.989C424.92 185.988 424.92 185.987 424.92 185.986C424.92 185.986 424.92 185.985 424.92 185.984C424.92 185.983 424.92 185.982 424.92 185.982C424.92 185.981 424.92 185.98 424.92 185.979C424.92 185.979 424.92 185.978 424.92 185.977C424.92 185.976 424.92 185.975 424.92 185.975C424.92 185.974 424.92 185.973 424.92 185.972C424.92 185.971 424.92 185.971 424.92 185.97C424.92 185.969 424.92 185.968 424.92 185.967C424.92 185.967 424.92 185.966 424.92 185.965C424.92 185.964 424.92 185.963 424.92 185.963C424.92 185.962 424.92 185.961 424.92 185.96C424.92 185.959 424.92 185.958 424.92 185.958C424.92 185.957 424.92 185.956 424.92 185.955C424.92 185.954 424.92 185.954 424.92 185.953C424.92 185.952 424.92 185.951 424.92 185.95C424.92 185.949 424.92 185.949 424.92 185.948C424.92 185.947 424.92 185.946 424.92 185.945C424.92 185.945 424.92 185.944 424.92 185.943C424.92 185.942 424.92 185.941 424.92 185.94C424.92 185.94 424.92 185.939 424.92 185.938C424.92 185.937 424.92 185.936 424.92 185.935C424.92 185.935 424.92 185.934 424.92 185.933C424.92 185.932 424.92 185.931 424.92 185.93C424.92 185.93 424.92 185.929 424.92 185.928C424.92 185.927 424.92 185.926 424.92 185.925C424.92 185.925 424.92 185.924 424.92 185.923C424.92 185.922 424.92 185.921 424.92 185.92C424.92 185.92 424.92 185.919 424.92 185.918C424.92 185.917 424.92 185.916 424.92 185.915C424.92 185.914 424.92 185.914 424.92 185.913C424.92 185.912 424.92 185.911 424.92 185.91C424.92 185.909 424.92 185.908 424.92 185.908C424.92 185.907 424.92 185.906 424.92 185.905C424.92 185.904 424.92 185.903 424.92 185.902C424.92 185.902 424.92 185.901 424.92 185.9C424.92 185.899 424.92 185.898 424.92 185.897C424.92 185.896 424.92 185.896 424.92 185.895C424.92 185.894 424.92 185.893 424.92 185.892C424.92 185.891 424.92 185.89 424.92 185.889C424.92 185.889 424.92 185.888 424.92 185.887C424.92 185.886 424.92 185.885 424.92 185.884C424.92 185.883 424.92 185.882 424.92 185.882C424.92 185.881 424.92 185.88 424.92 185.879C424.92 185.878 424.92 185.877 424.92 185.876C424.92 185.875 424.92 185.874 424.92 185.874C424.92 185.873 424.92 185.872 424.92 185.871C424.92 185.87 424.92 185.869 424.92 185.868C424.92 185.867 424.92 185.866 424.92 185.866C424.92 185.865 424.92 185.864 424.92 185.863C424.92 185.862 424.92 185.861 424.92 185.86C424.92 185.859 424.92 185.858 424.92 185.858C424.92 185.857 424.92 185.856 424.92 185.855C424.92 185.854 424.92 185.853 424.92 185.852C424.92 185.851 424.92 185.85 424.92 185.849C424.92 185.848 424.92 185.848 424.92 185.847C424.92 185.846 424.92 185.845 424.92 185.844C424.92 185.843 424.92 185.842 424.92 185.841C424.92 185.84 424.92 185.839 424.92 185.838C424.92 185.838 424.92 185.837 424.92 185.836C424.92 185.835 424.92 185.834 424.92 185.833C424.92 185.832 424.92 185.831 424.92 185.83C424.92 185.829 424.92 185.828 424.92 185.827C424.92 185.826 424.92 185.826 424.92 185.825C424.92 185.824 424.92 185.823 424.92 185.822C424.92 185.821 424.92 185.82 424.92 185.819C424.92 185.818 424.92 185.817 424.92 185.816C424.92 185.815 424.92 185.814 424.92 185.813C424.92 185.813 424.92 185.812 424.92 185.811C424.92 185.81 424.92 185.809 424.92 185.808C424.92 185.807 424.92 185.806 424.92 185.805C424.92 185.804 424.92 185.803 424.92 185.802C424.92 185.801 424.92 185.8 424.92 185.799C424.92 185.798 424.92 185.797 424.92 185.797C424.92 185.796 424.92 185.795 424.92 185.794C424.92 185.793 424.92 185.792 424.92 185.791C424.92 185.79 424.92 185.789 424.92 185.788C424.92 185.787 424.92 185.786 424.92 185.785C424.92 185.784 424.92 185.783 424.92 185.782C424.92 185.781 424.92 185.78 424.92 185.779C424.92 185.778 424.92 185.777 424.92 185.776C424.92 185.775 424.92 185.774 424.92 185.774C424.92 185.773 424.92 185.772 424.92 185.771C424.92 185.77 424.92 185.769 424.92 185.768C424.92 185.767 424.92 185.766 424.92 185.765C424.92 185.764 424.92 185.763 424.92 185.762C424.92 185.761 424.92 185.76 424.92 185.759C424.92 185.758 424.92 185.757 424.92 185.756C424.92 185.755 424.92 185.754 424.92 185.753C424.92 185.752 424.92 185.751 424.92 185.75C424.92 185.749 424.92 185.748 424.92 185.747C424.92 185.746 424.92 185.745 424.92 185.744C424.92 185.743 424.92 185.742 424.92 185.741C424.92 185.74 424.92 185.739 424.92 185.738C424.92 185.737 424.92 185.736 424.92 185.735C424.92 185.734 424.92 185.733 424.92 185.732C424.92 185.731 424.92 185.73 424.92 185.729C424.92 185.728 424.92 185.727 424.92 185.726C424.92 185.725 424.92 185.724 424.92 185.723C424.92 185.722 424.92 185.721 424.92 185.72C424.92 185.719 424.92 185.718 424.92 185.717C424.92 185.716 424.92 185.715 424.92 185.714C424.92 185.713 424.92 185.712 424.92 185.711C424.92 185.71 424.92 185.709 424.92 185.708C424.92 185.707 424.92 185.706 424.92 185.705C424.92 185.704 424.92 185.703 424.92 185.702C424.92 185.701 424.92 185.7 424.92 185.699C424.92 185.698 424.92 185.697 424.92 185.696C424.92 185.695 424.92 185.694 424.92 185.693C424.92 185.692 424.92 185.691 424.92 185.69C424.92 185.689 424.92 185.688 424.92 185.687C424.92 185.686 424.92 185.685 424.92 185.683C424.92 185.682 424.92 185.681 424.92 185.68C424.92 185.679 424.92 185.678 424.92 185.677C424.92 185.676 424.92 185.675 424.92 185.674C424.92 185.673 424.92 185.672 424.92 185.671C424.92 185.67 424.92 185.669 424.92 185.668C424.92 185.667 424.92 185.666 424.92 185.665C424.92 185.664 424.92 185.663 424.92 185.662C424.92 185.661 424.92 185.66 424.92 185.658C424.92 185.657 424.92 185.656 424.92 185.655C424.92 185.654 424.92 185.653 424.92 185.652C424.92 185.651 424.92 185.65 424.92 185.649C424.92 185.648 424.92 185.647 424.92 185.646C424.92 185.645 424.92 185.644 424.92 185.643C424.92 185.642 424.92 185.64 424.92 185.639C424.92 185.638 424.92 185.637 424.92 185.636C424.92 185.635 424.92 185.634 424.92 185.633C424.92 185.632 424.92 185.631 424.92 185.63C424.92 185.629 424.92 185.628 424.92 185.627C424.92 185.625 424.92 185.624 424.92 185.623C424.92 185.622 424.92 185.621 424.92 185.62C424.92 185.619 424.92 185.618 424.92 185.617C424.92 185.616 424.92 185.615 424.92 185.614C424.92 185.613 424.92 185.611 424.92 185.61C424.92 185.609 424.92 185.608 424.92 185.607C424.92 185.606 424.92 185.605 424.92 185.604C424.92 185.603 424.92 185.602 424.92 185.601C424.92 185.599 424.92 185.598 424.92 185.597C424.92 185.596 424.92 185.595 424.92 185.594C424.92 185.593 424.92 185.592 424.92 185.591C424.92 185.59 424.92 185.589 424.92 185.587C424.92 185.586 424.92 185.585 424.92 185.584C424.92 185.583 424.92 185.582 424.92 185.581C424.92 185.58 424.92 185.579 424.92 185.577C424.92 185.576 424.92 185.575 424.92 185.574C424.92 185.573 424.92 185.572 424.92 185.571C424.92 185.57 424.92 185.569 424.92 185.567C424.92 185.566 424.92 185.565 424.92 185.564C424.92 185.563 424.92 185.562 424.92 185.561C424.92 185.56 424.92 185.559 424.92 185.557C424.92 185.556 424.92 185.555 424.92 185.554C424.92 185.553 424.92 185.552 424.92 185.551C424.92 185.55 424.92 185.548 424.92 185.547C424.92 185.546 424.92 185.545 424.92 185.544C424.92 185.543 424.92 185.542 424.92 185.541C424.92 185.539 424.92 185.538 424.92 185.537C424.92 185.536 424.92 185.535 424.92 185.534C424.92 185.533 424.92 185.531 424.92 185.53C424.92 185.529 424.92 185.528 424.92 185.527C424.92 185.526 424.92 185.525 424.92 185.523C424.92 185.522 424.92 185.521 424.92 185.52C424.92 185.519 424.92 185.518 424.92 185.517C424.92 185.515 424.92 185.514 424.92 185.513C424.92 185.512 424.92 185.511 424.92 185.51C424.92 185.509 424.92 185.507 424.92 185.506C424.92 185.505 424.92 185.504 424.92 185.503C424.92 185.502 424.92 185.5 424.92 185.499C424.92 185.498 424.92 185.497 424.92 185.496C424.92 185.495 424.92 185.493 424.92 185.492C424.92 185.491 424.92 185.49 424.92 185.489C424.92 185.488 424.92 185.486 424.92 185.485C424.92 185.484 424.92 185.483 424.92 185.482C424.92 185.481 424.92 185.479 424.92 185.478C424.92 185.477 424.92 185.476 424.92 185.475C424.92 185.474 424.92 185.472 424.92 185.471C424.92 185.47 424.92 185.469 424.92 185.468C424.92 185.467 424.92 185.465 424.92 185.464C424.92 185.463 424.92 185.462 424.92 185.461C424.92 185.459 424.92 185.458 424.92 185.457C424.92 185.456 424.92 185.455 424.92 185.453C424.92 185.452 424.92 185.451 424.92 185.45C424.92 185.449 424.92 185.448 424.92 185.446C424.92 185.445 424.92 185.444 424.92 185.443C424.92 185.442 424.92 185.44 424.92 185.439C424.92 185.438 424.92 185.437 424.92 185.436C424.92 185.434 424.92 185.433 424.92 185.432C424.92 185.431 424.92 185.43 424.92 185.428C424.92 185.427 424.92 185.426 424.92 185.425C424.92 185.424 424.92 185.422 424.92 185.421C424.92 185.42 424.92 185.419 424.92 185.417C424.92 185.416 424.92 185.415 424.92 185.414C424.92 185.413 424.92 185.411 424.92 185.41C424.92 185.409 424.92 185.408 424.92 185.407C424.92 185.405 424.92 185.404 424.92 185.403C424.92 185.402 424.92 185.4 424.92 185.399C424.92 185.398 424.92 185.397 424.92 185.396C424.92 185.394 424.92 185.393 424.92 185.392C424.92 185.391 424.92 185.389 424.92 185.388C424.92 185.387 424.92 185.386 424.92 185.385C424.92 185.383 424.92 185.382 424.92 185.381C424.92 185.38 424.92 185.378 424.92 185.377C424.92 185.376 424.92 185.375 424.92 185.373C424.92 185.372 424.92 185.371 424.92 185.37C424.92 185.368 424.92 185.367 424.92 185.366C424.92 185.365 424.92 185.363 424.92 185.362C424.92 185.361 424.92 185.36 424.92 185.359C424.92 185.357 424.92 185.356 424.92 185.355C424.92 185.354 424.92 185.352 424.92 185.351C424.92 185.35 424.92 185.349 424.92 185.347C424.92 185.346 424.92 185.345 424.92 185.344C424.92 185.342 424.92 185.341 424.92 185.34C424.92 185.338 424.92 185.337 424.92 185.336C424.92 185.335 424.92 185.333 424.92 185.332C424.92 185.331 424.92 185.33 424.92 185.328C424.92 185.327 424.92 185.326 424.92 185.325C424.92 185.323 424.92 185.322 424.92 185.321C424.92 185.32 424.92 185.318 424.92 185.317C424.92 185.316 424.92 185.314 424.92 185.313C424.92 185.312 424.92 185.311 424.92 185.309C424.92 185.308 424.92 185.307 424.92 185.306C424.92 185.304 424.92 185.303 424.92 185.302C424.92 185.3 424.92 185.299 424.92 185.298C424.92 185.297 424.92 185.295 424.92 185.294C424.92 185.293 424.92 185.291 424.92 185.29C424.92 185.289 424.92 185.288 424.92 185.286C424.92 185.285 424.92 185.284 424.92 185.282C424.92 185.281 424.92 185.28 424.92 185.279C424.92 185.277 424.92 185.276 424.92 185.275C424.92 185.273 424.92 185.272 424.92 185.271C424.92 185.269 424.92 185.268 424.92 185.267C424.92 185.266 424.92 185.264 424.92 185.263C424.92 185.262 424.92 185.26 424.92 185.259C424.92 185.258 424.92 185.256 424.92 185.255C424.92 185.254 424.92 185.252 424.92 185.251C424.92 185.25 424.92 185.249 424.92 185.247C424.92 185.246 424.92 185.245 424.92 185.243C424.92 185.242 424.92 185.241 424.92 185.239C424.92 185.238 424.92 185.237 424.92 185.235C424.92 185.234 424.92 185.233 424.92 185.231C424.92 185.23 424.92 185.229 424.92 185.227C424.92 185.226 424.92 185.225 424.92 185.224C424.92 185.222 424.92 185.221 424.92 185.22C424.92 185.218 424.92 185.217 424.92 185.216C424.92 185.214 424.92 185.213 424.92 185.212C424.92 185.21 424.92 185.209 424.92 185.208C424.92 185.206 424.92 185.205 424.92 185.204C424.92 185.202 424.92 185.201 424.92 185.2C424.92 185.198 424.92 185.197 424.92 185.196C424.92 185.194 424.92 185.193 424.92 185.192C424.92 185.19 424.92 185.189 424.92 185.187C424.92 185.186 424.92 185.185 424.92 185.183C424.92 185.182 424.92 185.181 424.92 185.179C424.92 185.178 424.92 185.177 424.92 185.175C424.92 185.174 424.92 185.173 424.92 185.171C424.92 185.17 424.92 185.169 424.92 185.167C424.92 185.166 424.92 185.164 424.92 185.163C424.92 185.162 424.92 185.16 424.92 185.159C424.92 185.158 424.92 185.156 424.92 185.155C424.92 185.154 424.92 185.152 424.92 185.151C424.92 185.15 424.92 185.148 424.92 185.147C424.92 185.145 424.92 185.144 424.92 185.143C424.92 185.141 424.92 185.14 424.92 185.139C424.92 185.137 424.92 185.136 424.92 185.134C424.92 185.133 424.92 185.132 424.92 185.13C424.92 185.129 424.92 185.128 424.92 185.126C424.92 185.125 424.92 185.123 424.92 185.122C424.92 185.121 424.92 185.119 424.92 185.118C424.92 185.117 424.92 185.115 424.92 185.114C424.92 185.112 424.92 185.111 424.92 185.11C424.92 185.108 424.92 185.107 424.92 185.105C424.92 185.104 424.92 185.103 424.92 185.101C424.92 185.1 424.92 185.098 424.92 185.097C424.92 185.096 424.92 185.094 424.92 185.093C424.92 185.091 424.92 185.09 424.92 185.089C424.92 185.087 424.92 185.086 424.92 185.084C424.92 185.083 424.92 185.082 424.92 185.08C424.92 185.079 424.92 185.077 424.92 185.076C424.92 185.075 424.92 185.073 424.92 185.072C424.92 185.07 424.92 185.069 424.92 185.068C424.92 185.066 424.92 185.065 424.92 185.063C424.92 185.062 424.92 185.061 424.92 185.059C424.92 185.058 424.92 185.056 424.92 185.055C424.92 185.053 424.92 185.052 424.92 185.051C424.92 185.049 424.92 185.048 424.92 185.046C424.92 185.045 424.92 185.044 424.92 185.042C424.92 185.041 424.92 185.039 424.92 185.038C424.92 185.036 424.92 185.035 424.92 185.034C424.92 185.032 424.92 185.031 424.92 185.029C424.92 185.028 424.92 185.026 424.92 185.025C424.92 185.024 424.92 185.022 424.92 185.021C424.92 185.019 424.92 185.018 424.92 185.016C424.92 185.015 424.92 185.014 424.92 185.012C424.92 185.011 424.92 185.009 424.92 185.008C424.92 185.006 424.92 185.005 424.92 185.003C424.92 185.002 424.92 185.001 424.92 184.999C424.92 184.998 424.92 184.996 424.92 184.995C424.92 184.993 424.92 184.992 424.92 184.99C424.92 184.989 424.92 184.988 424.92 184.986C424.92 184.985 424.92 184.983 424.92 184.982C424.92 184.98 424.92 184.979 424.92 184.977C424.92 184.976 424.92 184.974 424.92 184.973C424.92 184.971 424.92 184.97 424.92 184.969C424.92 184.967 424.92 184.966 424.92 184.964C424.92 184.963 424.92 184.961 424.92 184.96C424.92 184.958 424.92 184.957 424.92 184.955C424.92 184.954 424.92 184.952 424.92 184.951C424.92 184.95 424.92 184.948 424.92 184.947C424.92 184.945 424.92 184.944 424.92 184.942C424.92 184.941 424.92 184.939 424.92 184.938C424.92 184.936 424.92 184.935 424.92 184.933C424.92 184.932 424.92 184.93 424.92 184.929C424.92 184.927 424.92 184.926 424.92 184.924C424.92 184.923 424.92 184.921 424.92 184.92C424.92 184.918 424.92 184.917 424.92 184.915C424.92 184.914 424.92 184.913 424.92 184.911C424.92 184.91 424.92 184.908 424.92 184.907C424.92 184.905 424.92 184.904 424.92 184.902C424.92 184.901 424.92 184.899 424.92 184.898C424.92 184.896 424.92 184.895 424.92 184.893C424.92 184.892 424.92 184.89 424.92 184.889C424.92 184.887 424.92 184.886 424.92 184.884C424.92 184.883 424.92 184.881 424.92 184.88C424.92 184.878 424.92 184.877 424.92 184.875C424.92 184.874 424.92 184.872 424.92 184.87C424.92 184.869 424.92 184.867 424.92 184.866C424.92 184.864 424.92 184.863 424.92 184.861C424.92 184.86 424.92 184.858 424.92 184.857C424.92 184.855 424.92 184.854 424.92 184.852C424.92 184.851 424.92 184.849 424.92 184.848C424.92 184.846 424.92 184.845 424.92 184.843C424.92 184.842 424.92 184.84 424.92 184.839C424.92 184.837 424.92 184.836 424.92 184.834C424.92 184.832 424.92 184.831 424.92 184.829C424.92 184.828 424.92 184.826 424.92 184.825C424.92 184.823 424.92 184.822 424.92 184.82C424.92 184.819 424.92 184.817 424.92 184.816C424.92 184.814 424.92 184.813 424.92 184.811C424.92 184.809 424.92 184.808 424.92 184.806C424.92 184.805 424.92 184.803 424.92 184.802C424.92 184.8 424.92 184.799 424.92 184.797C424.92 184.796 424.92 184.794 424.92 184.792C424.92 184.791 424.92 184.789 424.92 184.788C424.92 184.786 424.92 184.785 424.92 184.783C424.92 184.782 424.92 184.78 424.92 184.779C424.92 184.777 424.92 184.775 424.92 184.774C424.92 184.772 424.92 184.771 424.92 184.769C424.92 184.768 424.92 184.766 424.92 184.764C424.92 184.763 424.92 184.761 424.92 184.76C424.92 184.758 424.92 184.757 424.92 184.755C424.92 184.754 424.92 184.752 424.92 184.75C424.92 184.749 424.92 184.747 424.92 184.746C424.92 184.744 424.92 184.743 424.92 184.741C424.92 184.739 424.92 184.738 424.92 184.736C424.92 184.735 424.92 184.733 424.92 184.732C424.92 184.73 424.92 184.728 424.92 184.727C424.92 184.725 424.92 184.724 424.92 184.722C424.92 184.72 424.92 184.719 424.92 184.717C424.92 184.716 424.92 184.714 424.92 184.713C424.92 184.711 424.92 184.709 424.92 184.708C424.92 184.706 424.92 184.705 424.92 184.703C424.92 184.701 424.92 184.7 424.92 184.698C424.92 184.697 424.92 184.695 424.92 184.693C424.92 184.692 424.92 184.69 424.92 184.689C424.92 184.687 424.92 184.685 424.92 184.684C424.92 184.682 424.92 184.681 424.92 184.679C424.92 184.677 424.92 184.676 424.92 184.674C424.92 184.673 424.92 184.671 424.92 184.669C424.92 184.668 424.92 184.666 424.92 184.665C424.92 184.663 424.92 184.661 424.92 184.66C424.92 184.658 424.92 184.657 424.92 184.655C424.92 184.653 424.92 184.652 424.92 184.65C424.92 184.648 424.92 184.647 424.92 184.645C424.92 184.644 424.92 184.642 424.92 184.64C424.92 184.639 424.92 184.637 424.92 184.636C424.92 184.634 424.92 184.632 424.92 184.631C424.92 184.629 424.92 184.627 424.92 184.626C424.92 184.624 424.92 184.623 424.92 184.621C424.92 184.619 424.92 184.618 424.92 184.616C424.92 184.614 424.92 184.613 424.92 184.611C424.92 184.609 424.92 184.608 424.92 184.606C424.92 184.605 424.92 184.603 424.92 184.601C424.92 184.6 424.92 184.598 424.92 184.596C424.92 184.595 424.92 184.593 424.92 184.591C424.92 184.59 424.92 184.588 424.92 184.587C424.92 184.585 424.92 184.583 424.92 184.582C424.92 184.58 424.92 184.578 424.92 184.577C424.92 184.575 424.92 184.573 424.92 184.572C424.92 184.57 424.92 184.568 424.92 184.567C424.92 184.565 424.92 184.563 424.92 184.562C424.92 184.56 424.92 184.558 424.92 184.557C424.92 184.555 424.92 184.553 424.92 184.552C424.92 184.55 424.92 184.548 424.92 184.547C424.92 184.545 424.92 184.543 424.92 184.542C424.92 184.54 424.92 184.538 424.92 184.537C424.92 184.535 424.92 184.533 424.92 184.532C424.92 184.53 424.92 184.528 424.92 184.527C424.92 184.525 424.92 184.523 424.92 184.522C424.92 184.52 424.92 184.518 424.92 184.517C424.92 184.515 424.92 184.513 424.92 184.512C424.92 184.51 424.92 184.508 424.92 184.507C424.92 184.505 424.92 184.503 424.92 184.502C424.92 184.5 424.92 184.498 424.92 184.497C424.92 184.495 424.92 184.493 424.92 184.492C424.92 184.49 424.92 184.488 424.92 184.486C424.92 184.485 424.92 184.483 424.92 184.481C424.92 184.48 424.92 184.478 424.92 184.476C424.92 184.475 424.92 184.473 424.92 184.471C424.92 184.47 424.92 184.468 424.92 184.466C424.92 184.464 424.92 184.463 424.92 184.461C424.92 184.459 424.92 184.458 424.92 184.456C424.92 184.454 424.92 184.453 424.92 184.451C424.92 184.449 424.92 184.447 424.92 184.446C424.92 184.444 424.92 184.442 424.92 184.441C424.92 184.439 424.92 184.437 424.92 184.435C424.92 184.434 424.92 184.432 424.92 184.43C424.92 184.429 424.92 184.427 424.92 184.425C424.92 184.423 424.92 184.422 424.92 184.42H418.92ZM418.92 186.18C418.92 187.73 418.54 188.645 418.064 189.223C417.582 189.808 416.723 190.385 415.131 190.727L416.389 196.593C418.903 196.055 421.124 194.945 422.696 193.037C424.274 191.121 424.92 188.736 424.92 186.18H418.92ZM415.239 190.706C412.481 191.192 410.041 192.043 408.1 193.402L411.54 198.318C412.532 197.624 414.053 197.008 416.281 196.614L415.239 190.706ZM408.277 193.288C405.585 194.902 404.62 197.738 404.62 200.7H410.62C410.62 198.969 411.122 198.578 411.363 198.432L408.277 193.288ZM404.62 200.7C404.62 202.907 405.652 204.781 407.576 205.921C409.253 206.915 411.382 207.22 413.56 207.22V201.22C411.778 201.22 410.937 200.939 410.634 200.759C410.528 200.696 410.561 200.689 410.606 200.769C410.649 200.846 410.62 200.856 410.62 200.7H404.62ZM413.56 207.22C415.206 207.22 418.218 206.982 422.449 206.544L421.831 200.576C417.555 201.018 414.847 201.22 413.56 201.22V207.22ZM422.55 206.532C426.605 205.972 432.242 205.68 439.52 205.68V199.68C432.131 199.68 426.181 199.974 421.73 200.588L422.55 206.532ZM439.52 205.68C443.585 205.68 446.582 205.827 448.584 206.094L449.376 200.146C446.978 199.827 443.668 199.68 439.52 199.68V205.68ZM448.584 206.094C450.749 206.382 452.414 206.56 453.38 206.56V200.56C452.879 200.56 451.611 200.444 449.376 200.146L448.584 206.094ZM453.38 206.56C455.588 206.56 457.805 206.083 459.487 204.602C461.242 203.057 461.88 200.902 461.88 198.72H455.88C455.88 199.764 455.601 200.029 455.523 200.098C455.372 200.231 454.838 200.56 453.38 200.56V206.56ZM461.88 198.72C461.88 196.751 461.346 194.179 458.902 192.957L456.218 198.323C456.102 198.265 455.993 198.182 455.908 198.087C455.826 197.996 455.795 197.928 455.793 197.922C455.792 197.919 455.815 197.975 455.838 198.113C455.861 198.251 455.88 198.45 455.88 198.72H461.88ZM459.434 193.297C458.553 192.592 457.537 191.92 456.408 191.275L453.432 196.485C454.356 197.013 455.101 197.514 455.686 197.983L459.434 193.297ZM456.664 191.439C455.935 190.919 455.111 190.119 454.208 188.958L449.472 192.642C450.623 194.121 451.851 195.375 453.176 196.321L456.664 191.439ZM454.208 188.958C453.705 188.311 453.044 186.66 452.615 183.372L446.665 184.148C447.116 187.607 447.922 190.649 449.472 192.642L454.208 188.958ZM452.615 183.373L438.095 71.8327L432.145 72.6073L446.665 184.147L452.615 183.373ZM408.601 102.057L413.881 146.057L419.839 145.343L414.559 101.343L408.601 102.057ZM416.86 142.7H390.02V148.7H416.86V142.7ZM392.747 146.95C395.963 139.934 399.325 132.844 402.834 125.68L397.446 123.04C393.915 130.249 390.531 137.386 387.293 144.45L392.747 146.95ZM402.845 125.658C406.347 118.362 410.142 110.843 414.233 103.101L408.927 100.299C404.804 108.103 400.973 115.691 397.435 123.062L402.845 125.658Z"/>
          <path d="M452.36 55.48C450.94 55.48 449.58 55.75 448.28 56.29C447 56.83 445.86 57.6 444.86 58.6C443.84 59.62 443.07 60.77 442.55 62.05C442.03 63.33 441.77 64.67 441.77 66.07C441.77 67.51 442.03 68.86 442.55 70.12C443.09 71.38 443.87 72.52 444.89 73.54C445.91 74.56 447.05 75.33 448.31 75.85C449.57 76.35 450.91 76.6 452.33 76.6C453.77 76.6 455.12 76.35 456.38 75.85C457.64 75.33 458.77 74.56 459.77 73.54C460.79 72.52 461.56 71.37 462.08 70.09C462.62 68.79 462.89 67.45 462.89 66.07C462.89 64.67 462.62 63.32 462.08 62.02C461.54 60.72 460.77 59.57 459.77 58.57C458.79 57.59 457.65 56.83 456.35 56.29C455.07 55.75 453.74 55.48 452.36 55.48ZM461.45 66.07C461.45 67.27 461.22 68.43 460.76 69.55C460.3 70.65 459.63 71.65 458.75 72.55C457.89 73.43 456.91 74.1 455.81 74.56C454.73 75 453.57 75.22 452.33 75.22C449.83 75.22 447.69 74.33 445.91 72.55C445.03 71.67 444.36 70.69 443.9 69.61C443.44 68.51 443.21 67.33 443.21 66.07C443.21 64.85 443.43 63.69 443.87 62.59C444.33 61.49 445 60.49 445.88 59.59C446.74 58.71 447.73 58.04 448.85 57.58C449.97 57.12 451.14 56.89 452.36 56.89C453.56 56.89 454.71 57.12 455.81 57.58C456.93 58.04 457.91 58.69 458.75 59.53C459.61 60.39 460.27 61.39 460.73 62.53C461.21 63.67 461.45 64.85 461.45 66.07ZM457.07 59.89H456.47C456.41 60.23 456.31 60.47 456.17 60.61C456.05 60.73 455.85 60.79 455.57 60.79C455.45 60.79 455.29 60.74 455.09 60.64C454.91 60.54 454.68 60.43 454.4 60.31C454.14 60.19 453.82 60.08 453.44 59.98C453.08 59.88 452.66 59.83 452.18 59.83C451.32 59.83 450.52 59.99 449.78 60.31C449.04 60.63 448.39 61.08 447.83 61.66C447.29 62.22 446.86 62.89 446.54 63.67C446.24 64.45 446.09 65.29 446.09 66.19C446.09 67.07 446.24 67.9 446.54 68.68C446.86 69.44 447.29 70.11 447.83 70.69C448.39 71.25 449.04 71.69 449.78 72.01C450.54 72.33 451.35 72.49 452.21 72.49C454.41 72.49 456.12 71.45 457.34 69.37L456.71 68.98C455.61 70.68 454.26 71.53 452.66 71.53C451.46 71.53 450.54 71.06 449.9 70.12C449.26 69.18 448.94 67.8 448.94 65.98C448.94 62.38 450.09 60.58 452.39 60.58C453.39 60.58 454.23 60.92 454.91 61.6C455.59 62.26 456.09 63.25 456.41 64.57H457.1L457.07 59.89Z" fill="#EDC52F"/>
          <mask id="path-5-outside-1_57_36" maskUnits="userSpaceOnUse" x="0.0138631" y="116.727" width="387.297" height="210.84" fill="black">
          <rect fill="white" x="0.0138631" y="116.727" width="387.297" height="210.84"/>
          <path d="M29.9199 318.948C28.3358 319.135 25.9597 318.918 22.7914 318.296C19.8212 317.451 16.752 316.12 13.5838 314.301C10.4156 312.483 7.7424 310.008 5.56425 306.876C3.18808 303.768 2 300.02 2 295.633C2 289.651 3.78212 282.262 7.34637 273.466C10.9106 264.47 15.2669 255.879 20.4153 247.692C25.5636 239.306 31.108 232.07 37.0484 225.983C42.9888 219.897 48.3352 216.572 53.0875 216.01C56.8498 215.564 60.414 215.84 63.7803 216.838C67.1465 217.835 70.0177 219.19 72.3939 220.903C74.9681 222.592 76.9482 224.551 78.3343 226.78C79.9184 228.786 80.7104 230.586 80.7104 232.181C80.7104 234.773 80.0174 237.747 78.6313 241.101C77.2452 244.455 75.5621 247.646 73.582 250.671C71.7998 253.674 69.9187 256.289 67.9386 258.518C66.1564 260.523 64.6713 261.596 63.4833 261.737C61.8991 261.924 60.414 261.701 59.0279 261.068C57.8399 260.211 56.8498 259.332 56.0577 258.428C55.2657 257.525 54.8697 256.675 54.8697 255.877C55.0677 254.857 55.7607 254.276 56.9488 254.136C58.1369 253.995 59.721 252.611 61.7011 249.984C63.8793 247.333 65.6614 244.431 67.0475 241.276C68.4336 238.121 69.2257 235.335 69.4237 232.919C69.8197 230.479 68.8296 229.4 66.4535 229.681C63.8793 229.986 60.414 232.39 56.0577 236.894C51.8995 241.174 47.7412 246.651 43.5829 253.325C39.6226 259.775 36.1574 266.965 33.1872 274.894C30.217 282.822 28.7319 290.475 28.7319 297.853C28.7319 301.841 30.613 303.612 34.3752 303.167C39.1276 302.604 43.9789 300.734 48.9292 297.556C54.0776 294.155 59.127 290.068 64.0773 285.295C69.2257 280.498 74.077 275.338 78.6313 269.814C83.3836 264.067 87.6409 258.678 91.4032 253.647C92.1952 252.556 93.1853 251.94 94.3734 251.8C95.5615 251.659 96.4525 252.152 97.0466 253.278C97.6406 254.404 97.4426 255.724 96.4525 257.236C92.6903 262.866 88.334 269.164 83.3836 276.131C78.6313 282.874 73.3839 289.278 67.6415 295.341C62.0972 301.381 56.0577 306.682 49.5233 311.244C43.1869 315.583 36.6524 318.151 29.9199 318.948Z"/>
          <path d="M141.771 147.788C144.148 147.507 146.524 147.923 148.9 149.038C151.474 150.129 153.652 151.566 155.434 153.349C157.216 155.132 158.405 156.986 158.999 158.909C159.791 160.809 159.593 162.428 158.405 163.765C155.83 166.662 152.761 171.611 149.197 178.613C145.633 185.416 141.87 193.239 137.91 202.082C134.148 210.702 130.386 219.722 126.623 229.14C122.861 238.359 119.396 246.944 116.228 254.896C113.257 262.825 110.782 269.498 108.802 274.917C107.02 280.312 106.129 283.309 106.129 283.907C106.129 285.502 106.723 286.229 107.911 286.089C110.287 285.807 113.356 283.849 117.119 280.213C120.881 276.578 124.544 272.555 128.108 268.145C131.871 263.513 135.237 259.226 138.207 255.285C141.177 251.145 143.058 248.53 143.851 247.439C144.643 246.349 145.633 245.733 146.821 245.592C148.009 245.452 148.9 245.944 149.494 247.07C150.088 248.196 149.89 249.516 148.9 251.029C148.702 251.451 147.613 253.275 145.633 256.5C143.653 259.526 141.177 263.209 138.207 267.548C135.237 271.888 131.871 276.573 128.108 281.605C124.544 286.413 120.782 291.046 116.822 295.502C113.059 299.736 109.297 303.372 105.535 306.409C101.773 309.247 98.4064 310.842 95.4362 311.194C94.2481 311.334 92.664 311.023 90.6838 310.261C88.5057 309.521 86.5256 308.559 84.7434 307.375C82.7633 306.014 81.0802 304.418 79.6941 302.589C78.308 300.759 77.6149 298.847 77.6149 296.853C77.6149 294.061 79.001 288.513 81.7732 280.21C84.3474 271.73 87.7136 262.059 91.8719 251.199C96.0302 240.138 100.585 228.633 105.535 216.681C110.683 204.507 115.634 193.353 120.386 183.219C125.138 173.086 129.396 164.706 133.158 158.079C137.118 151.429 139.989 147.999 141.771 147.788Z"/>
          <path d="M246.548 235.284C247.34 234.193 248.33 233.578 249.518 233.437C250.706 233.297 251.597 233.789 252.191 234.915C252.785 236.041 252.587 237.361 251.597 238.874C247.835 244.503 243.676 250.778 239.122 257.698C234.766 264.395 230.113 270.728 225.162 276.698C220.41 282.644 215.658 287.792 210.905 292.143C206.153 296.295 201.599 298.628 197.242 299.144C196.252 299.261 194.767 298.939 192.787 298.176C191.005 297.39 189.124 296.316 187.144 294.956C185.361 293.571 183.777 291.964 182.391 290.134C181.005 288.305 180.312 286.492 180.312 284.698C180.312 281.906 181.104 278.323 182.688 273.948C184.272 269.573 185.856 265.099 187.441 260.525C183.876 265.931 180.015 271.274 175.857 276.551C171.897 281.806 167.837 286.573 163.679 290.854C159.719 294.912 155.758 298.371 151.798 301.233C147.838 303.895 144.274 305.413 141.105 305.788C139.125 306.023 137.244 305.547 135.462 304.363C133.68 303.178 132.096 301.67 130.71 299.84C129.324 297.811 128.235 295.647 127.442 293.348C126.452 290.873 125.957 288.539 125.957 286.346C125.957 283.355 127.046 279.238 129.225 273.995C131.403 268.752 134.373 263.017 138.135 256.789C141.699 250.386 145.66 243.935 150.016 237.438C154.57 230.917 159.125 224.994 163.679 219.669C168.431 214.122 172.986 209.595 177.342 206.089C181.698 202.383 185.46 200.342 188.629 199.967C192.787 199.475 196.846 200.091 200.807 201.816C204.767 203.54 208.331 205.81 211.499 208.626C214.667 211.441 217.341 214.515 219.519 217.846C221.697 220.978 223.083 223.805 223.677 226.326C223.677 226.725 223.776 227.013 223.974 227.189V228.086C223.974 229.282 223.182 231.968 221.598 236.144C220.014 240.12 218.232 244.518 216.252 249.338C214.469 253.936 212.786 258.422 211.202 262.797C209.618 267.172 208.826 270.256 208.826 272.051C208.826 273.447 209.42 274.074 210.608 273.934C212.984 273.652 215.46 272.462 218.034 270.363C220.608 268.064 223.38 265.244 226.35 261.901C229.321 258.359 232.489 254.296 235.855 249.71C239.221 245.124 242.785 240.316 246.548 235.284ZM157.145 280.561C157.937 280.467 159.62 279.071 162.194 276.374C164.966 273.653 168.035 270.299 171.401 266.311C174.966 262.101 178.629 257.679 182.391 253.047C186.154 248.215 189.619 243.617 192.787 239.254C196.153 234.868 198.826 231.062 200.807 227.837C202.985 224.389 204.074 222.166 204.074 221.169C204.074 219.574 203.678 218.026 202.886 216.524C202.094 215.023 200.609 214.302 198.43 214.36C196.846 214.547 194.668 216.002 191.896 218.722C189.124 221.244 186.055 224.498 182.688 228.486C179.52 232.45 176.253 236.924 172.887 241.909C169.718 246.671 166.748 251.409 163.976 256.124C161.402 260.616 159.224 264.861 157.442 268.861C155.857 272.837 155.065 275.822 155.065 277.816C155.065 279.81 155.758 280.725 157.145 280.561Z"/>
          <path d="M312.992 227.42C313.784 226.329 314.675 225.725 315.665 225.608C316.853 225.468 317.744 225.96 318.338 227.086C319.131 228.189 319.032 229.497 318.041 231.01C310.319 244.685 301.606 255.387 291.904 263.115C290.914 267.021 289.032 270.833 286.26 274.551C283.488 278.069 280.32 281.335 276.756 284.349C273.191 287.164 269.528 289.492 265.766 291.333C262.004 293.174 258.439 294.294 255.073 294.692C253.093 294.926 250.816 294.598 248.242 293.706C245.865 292.99 243.687 291.852 241.707 290.292C239.529 288.755 237.747 286.972 236.361 284.943C234.975 282.914 234.282 280.802 234.282 278.609C234.282 276.815 234.777 275.46 235.767 274.545C236.757 273.63 237.747 273.114 238.737 272.997C239.529 272.903 240.222 273.021 240.816 273.349C241.212 273.502 241.608 273.754 242.004 274.106C242.4 274.458 242.895 274.798 243.489 275.127C243.885 275.478 244.578 275.596 245.568 275.479C246.361 275.385 248.44 274.939 251.806 274.142C255.172 273.345 258.538 271.75 261.905 269.358C260.32 267.95 259.528 266.05 259.528 263.657C259.528 261.264 260.32 259.177 261.905 257.394C263.687 255.389 265.766 254.245 268.142 253.964C268.538 253.917 268.835 253.982 269.033 254.158C268.835 250.791 268.241 246.276 267.251 240.61C266.459 234.922 265.568 228.248 264.578 220.588C262.004 223.685 259.429 227.18 256.855 231.073L251.509 238.884C250.717 239.975 249.826 240.579 248.836 240.696C247.648 240.837 246.757 240.344 246.163 239.218C245.37 238.115 245.469 236.808 246.46 235.295L251.212 228.451C253.39 224.804 255.37 221.18 257.152 217.579C258.736 214.401 260.122 211.046 261.311 207.516C262.499 203.786 263.093 200.426 263.093 197.435V192.649C263.093 188.063 264.677 183.987 267.845 180.422C271.013 176.857 273.983 174.91 276.756 174.582C278.538 174.371 280.221 174.67 281.805 175.48C283.587 176.066 285.072 176.888 286.26 177.943C287.448 178.999 288.24 180.202 288.636 181.55C289.032 182.7 288.735 183.832 287.745 184.946C286.161 186.928 284.379 189.133 282.399 191.561C280.419 193.789 279.429 197.096 279.429 201.483C279.429 205.87 279.924 210.198 280.914 214.467C282.102 218.714 283.389 222.948 284.775 227.171C286.161 231.194 287.547 235.217 288.933 239.24C290.32 243.064 291.31 246.935 291.904 250.853C295.468 248.038 298.933 244.637 302.299 240.649C305.864 236.439 309.428 232.029 312.992 227.42Z"/>
          <path d="M379.126 219.593C379.918 218.502 380.809 217.898 381.799 217.781C382.987 217.64 383.878 218.133 384.472 219.259C385.264 220.362 385.165 221.669 384.175 223.182C376.452 236.858 367.74 247.56 358.037 255.288C357.047 259.194 355.166 263.005 352.394 266.723C349.622 270.242 346.453 273.508 342.889 276.522C339.325 279.337 335.662 281.664 331.899 283.505C328.137 285.347 324.573 286.466 321.207 286.865C319.226 287.099 316.949 286.77 314.375 285.879C311.999 285.163 309.821 284.025 307.841 282.465C305.663 280.928 303.88 279.145 302.494 277.116C301.108 275.086 300.415 272.975 300.415 270.782C300.415 268.987 300.91 267.632 301.9 266.718C302.89 265.803 303.88 265.287 304.87 265.17C305.663 265.076 306.356 265.193 306.95 265.522C307.346 265.674 307.742 265.927 308.138 266.279C308.534 266.63 309.029 266.971 309.623 267.299C310.019 267.651 310.712 267.768 311.702 267.651C312.494 267.558 314.573 267.112 317.939 266.315C321.306 265.518 324.672 263.923 328.038 261.53C326.454 260.123 325.662 258.223 325.662 255.83C325.662 253.437 326.454 251.349 328.038 249.567C329.82 247.561 331.899 246.418 334.276 246.137C334.672 246.09 334.969 246.154 335.167 246.33C334.969 242.964 334.374 238.448 333.384 232.783C332.592 227.094 331.701 220.42 330.711 212.761C328.137 215.857 325.563 219.352 322.989 223.246L317.642 231.057C316.85 232.148 315.959 232.752 314.969 232.869C313.781 233.009 312.89 232.517 312.296 231.391C311.504 230.288 311.603 228.98 312.593 227.467L317.345 220.624C319.523 216.976 321.504 213.352 323.286 209.752C324.87 206.573 326.256 203.219 327.444 199.688C328.632 195.959 329.226 192.598 329.226 189.607V184.822C329.226 180.236 330.81 176.16 333.978 172.595C337.147 169.029 340.117 167.083 342.889 166.755C344.671 166.544 346.354 166.843 347.938 167.652C349.721 168.239 351.206 169.06 352.394 170.116C353.582 171.172 354.374 172.374 354.77 173.723C355.166 174.873 354.869 176.004 353.879 177.118C352.295 179.101 350.513 181.305 348.532 183.733C346.552 185.961 345.562 189.269 345.562 193.656C345.562 198.042 346.057 202.371 347.047 206.64C348.235 210.886 349.523 215.121 350.909 219.343C352.295 223.366 353.681 227.39 355.067 231.413C356.453 235.237 357.443 239.108 358.037 243.025C361.601 240.211 365.067 236.809 368.433 232.822C371.997 228.612 375.561 224.202 379.126 219.593Z"/>
          </mask>
          <path d="M29.9199 318.948C28.3358 319.135 25.9597 318.918 22.7914 318.296C19.8212 317.451 16.752 316.12 13.5838 314.301C10.4156 312.483 7.7424 310.008 5.56425 306.876C3.18808 303.768 2 300.02 2 295.633C2 289.651 3.78212 282.262 7.34637 273.466C10.9106 264.47 15.2669 255.879 20.4153 247.692C25.5636 239.306 31.108 232.07 37.0484 225.983C42.9888 219.897 48.3352 216.572 53.0875 216.01C56.8498 215.564 60.414 215.84 63.7803 216.838C67.1465 217.835 70.0177 219.19 72.3939 220.903C74.9681 222.592 76.9482 224.551 78.3343 226.78C79.9184 228.786 80.7104 230.586 80.7104 232.181C80.7104 234.773 80.0174 237.747 78.6313 241.101C77.2452 244.455 75.5621 247.646 73.582 250.671C71.7998 253.674 69.9187 256.289 67.9386 258.518C66.1564 260.523 64.6713 261.596 63.4833 261.737C61.8991 261.924 60.414 261.701 59.0279 261.068C57.8399 260.211 56.8498 259.332 56.0577 258.428C55.2657 257.525 54.8697 256.675 54.8697 255.877C55.0677 254.857 55.7607 254.276 56.9488 254.136C58.1369 253.995 59.721 252.611 61.7011 249.984C63.8793 247.333 65.6614 244.431 67.0475 241.276C68.4336 238.121 69.2257 235.335 69.4237 232.919C69.8197 230.479 68.8296 229.4 66.4535 229.681C63.8793 229.986 60.414 232.39 56.0577 236.894C51.8995 241.174 47.7412 246.651 43.5829 253.325C39.6226 259.775 36.1574 266.965 33.1872 274.894C30.217 282.822 28.7319 290.475 28.7319 297.853C28.7319 301.841 30.613 303.612 34.3752 303.167C39.1276 302.604 43.9789 300.734 48.9292 297.556C54.0776 294.155 59.127 290.068 64.0773 285.295C69.2257 280.498 74.077 275.338 78.6313 269.814C83.3836 264.067 87.6409 258.678 91.4032 253.647C92.1952 252.556 93.1853 251.94 94.3734 251.8C95.5615 251.659 96.4525 252.152 97.0466 253.278C97.6406 254.404 97.4426 255.724 96.4525 257.236C92.6903 262.866 88.334 269.164 83.3836 276.131C78.6313 282.874 73.3839 289.278 67.6415 295.341C62.0972 301.381 56.0577 306.682 49.5233 311.244C43.1869 315.583 36.6524 318.151 29.9199 318.948Z" fill="#EDC52F"/>
          <path d="M141.771 147.788C144.148 147.507 146.524 147.923 148.9 149.038C151.474 150.129 153.652 151.566 155.434 153.349C157.216 155.132 158.405 156.986 158.999 158.909C159.791 160.809 159.593 162.428 158.405 163.765C155.83 166.662 152.761 171.611 149.197 178.613C145.633 185.416 141.87 193.239 137.91 202.082C134.148 210.702 130.386 219.722 126.623 229.14C122.861 238.359 119.396 246.944 116.228 254.896C113.257 262.825 110.782 269.498 108.802 274.917C107.02 280.312 106.129 283.309 106.129 283.907C106.129 285.502 106.723 286.229 107.911 286.089C110.287 285.807 113.356 283.849 117.119 280.213C120.881 276.578 124.544 272.555 128.108 268.145C131.871 263.513 135.237 259.226 138.207 255.285C141.177 251.145 143.058 248.53 143.851 247.439C144.643 246.349 145.633 245.733 146.821 245.592C148.009 245.452 148.9 245.944 149.494 247.07C150.088 248.196 149.89 249.516 148.9 251.029C148.702 251.451 147.613 253.275 145.633 256.5C143.653 259.526 141.177 263.209 138.207 267.548C135.237 271.888 131.871 276.573 128.108 281.605C124.544 286.413 120.782 291.046 116.822 295.502C113.059 299.736 109.297 303.372 105.535 306.409C101.773 309.247 98.4064 310.842 95.4362 311.194C94.2481 311.334 92.664 311.023 90.6838 310.261C88.5057 309.521 86.5256 308.559 84.7434 307.375C82.7633 306.014 81.0802 304.418 79.6941 302.589C78.308 300.759 77.6149 298.847 77.6149 296.853C77.6149 294.061 79.001 288.513 81.7732 280.21C84.3474 271.73 87.7136 262.059 91.8719 251.199C96.0302 240.138 100.585 228.633 105.535 216.681C110.683 204.507 115.634 193.353 120.386 183.219C125.138 173.086 129.396 164.706 133.158 158.079C137.118 151.429 139.989 147.999 141.771 147.788Z" fill="#EDC52F"/>
          <path d="M246.548 235.284C247.34 234.193 248.33 233.578 249.518 233.437C250.706 233.297 251.597 233.789 252.191 234.915C252.785 236.041 252.587 237.361 251.597 238.874C247.835 244.503 243.676 250.778 239.122 257.698C234.766 264.395 230.113 270.728 225.162 276.698C220.41 282.644 215.658 287.792 210.905 292.143C206.153 296.295 201.599 298.628 197.242 299.144C196.252 299.261 194.767 298.939 192.787 298.176C191.005 297.39 189.124 296.316 187.144 294.956C185.361 293.571 183.777 291.964 182.391 290.134C181.005 288.305 180.312 286.492 180.312 284.698C180.312 281.906 181.104 278.323 182.688 273.948C184.272 269.573 185.856 265.099 187.441 260.525C183.876 265.931 180.015 271.274 175.857 276.551C171.897 281.806 167.837 286.573 163.679 290.854C159.719 294.912 155.758 298.371 151.798 301.233C147.838 303.895 144.274 305.413 141.105 305.788C139.125 306.023 137.244 305.547 135.462 304.363C133.68 303.178 132.096 301.67 130.71 299.84C129.324 297.811 128.235 295.647 127.442 293.348C126.452 290.873 125.957 288.539 125.957 286.346C125.957 283.355 127.046 279.238 129.225 273.995C131.403 268.752 134.373 263.017 138.135 256.789C141.699 250.386 145.66 243.935 150.016 237.438C154.57 230.917 159.125 224.994 163.679 219.669C168.431 214.122 172.986 209.595 177.342 206.089C181.698 202.383 185.46 200.342 188.629 199.967C192.787 199.475 196.846 200.091 200.807 201.816C204.767 203.54 208.331 205.81 211.499 208.626C214.667 211.441 217.341 214.515 219.519 217.846C221.697 220.978 223.083 223.805 223.677 226.326C223.677 226.725 223.776 227.013 223.974 227.189V228.086C223.974 229.282 223.182 231.968 221.598 236.144C220.014 240.12 218.232 244.518 216.252 249.338C214.469 253.936 212.786 258.422 211.202 262.797C209.618 267.172 208.826 270.256 208.826 272.051C208.826 273.447 209.42 274.074 210.608 273.934C212.984 273.652 215.46 272.462 218.034 270.363C220.608 268.064 223.38 265.244 226.35 261.901C229.321 258.359 232.489 254.296 235.855 249.71C239.221 245.124 242.785 240.316 246.548 235.284ZM157.145 280.561C157.937 280.467 159.62 279.071 162.194 276.374C164.966 273.653 168.035 270.299 171.401 266.311C174.966 262.101 178.629 257.679 182.391 253.047C186.154 248.215 189.619 243.617 192.787 239.254C196.153 234.868 198.826 231.062 200.807 227.837C202.985 224.389 204.074 222.166 204.074 221.169C204.074 219.574 203.678 218.026 202.886 216.524C202.094 215.023 200.609 214.302 198.43 214.36C196.846 214.547 194.668 216.002 191.896 218.722C189.124 221.244 186.055 224.498 182.688 228.486C179.52 232.45 176.253 236.924 172.887 241.909C169.718 246.671 166.748 251.409 163.976 256.124C161.402 260.616 159.224 264.861 157.442 268.861C155.857 272.837 155.065 275.822 155.065 277.816C155.065 279.81 155.758 280.725 157.145 280.561Z" fill="#EDC52F"/>
          <path d="M312.992 227.42C313.784 226.329 314.675 225.725 315.665 225.608C316.853 225.468 317.744 225.96 318.338 227.086C319.131 228.189 319.032 229.497 318.041 231.01C310.319 244.685 301.606 255.387 291.904 263.115C290.914 267.021 289.032 270.833 286.26 274.551C283.488 278.069 280.32 281.335 276.756 284.349C273.191 287.164 269.528 289.492 265.766 291.333C262.004 293.174 258.439 294.294 255.073 294.692C253.093 294.926 250.816 294.598 248.242 293.706C245.865 292.99 243.687 291.852 241.707 290.292C239.529 288.755 237.747 286.972 236.361 284.943C234.975 282.914 234.282 280.802 234.282 278.609C234.282 276.815 234.777 275.46 235.767 274.545C236.757 273.63 237.747 273.114 238.737 272.997C239.529 272.903 240.222 273.021 240.816 273.349C241.212 273.502 241.608 273.754 242.004 274.106C242.4 274.458 242.895 274.798 243.489 275.127C243.885 275.478 244.578 275.596 245.568 275.479C246.361 275.385 248.44 274.939 251.806 274.142C255.172 273.345 258.538 271.75 261.905 269.358C260.32 267.95 259.528 266.05 259.528 263.657C259.528 261.264 260.32 259.177 261.905 257.394C263.687 255.389 265.766 254.245 268.142 253.964C268.538 253.917 268.835 253.982 269.033 254.158C268.835 250.791 268.241 246.276 267.251 240.61C266.459 234.922 265.568 228.248 264.578 220.588C262.004 223.685 259.429 227.18 256.855 231.073L251.509 238.884C250.717 239.975 249.826 240.579 248.836 240.696C247.648 240.837 246.757 240.344 246.163 239.218C245.37 238.115 245.469 236.808 246.46 235.295L251.212 228.451C253.39 224.804 255.37 221.18 257.152 217.579C258.736 214.401 260.122 211.046 261.311 207.516C262.499 203.786 263.093 200.426 263.093 197.435V192.649C263.093 188.063 264.677 183.987 267.845 180.422C271.013 176.857 273.983 174.91 276.756 174.582C278.538 174.371 280.221 174.67 281.805 175.48C283.587 176.066 285.072 176.888 286.26 177.943C287.448 178.999 288.24 180.202 288.636 181.55C289.032 182.7 288.735 183.832 287.745 184.946C286.161 186.928 284.379 189.133 282.399 191.561C280.419 193.789 279.429 197.096 279.429 201.483C279.429 205.87 279.924 210.198 280.914 214.467C282.102 218.714 283.389 222.948 284.775 227.171C286.161 231.194 287.547 235.217 288.933 239.24C290.32 243.064 291.31 246.935 291.904 250.853C295.468 248.038 298.933 244.637 302.299 240.649C305.864 236.439 309.428 232.029 312.992 227.42Z" fill="#EDC52F"/>
          <path d="M379.126 219.593C379.918 218.502 380.809 217.898 381.799 217.781C382.987 217.64 383.878 218.133 384.472 219.259C385.264 220.362 385.165 221.669 384.175 223.182C376.452 236.858 367.74 247.56 358.037 255.288C357.047 259.194 355.166 263.005 352.394 266.723C349.622 270.242 346.453 273.508 342.889 276.522C339.325 279.337 335.662 281.664 331.899 283.505C328.137 285.347 324.573 286.466 321.207 286.865C319.226 287.099 316.949 286.77 314.375 285.879C311.999 285.163 309.821 284.025 307.841 282.465C305.663 280.928 303.88 279.145 302.494 277.116C301.108 275.086 300.415 272.975 300.415 270.782C300.415 268.987 300.91 267.632 301.9 266.718C302.89 265.803 303.88 265.287 304.87 265.17C305.663 265.076 306.356 265.193 306.95 265.522C307.346 265.674 307.742 265.927 308.138 266.279C308.534 266.63 309.029 266.971 309.623 267.299C310.019 267.651 310.712 267.768 311.702 267.651C312.494 267.558 314.573 267.112 317.939 266.315C321.306 265.518 324.672 263.923 328.038 261.53C326.454 260.123 325.662 258.223 325.662 255.83C325.662 253.437 326.454 251.349 328.038 249.567C329.82 247.561 331.899 246.418 334.276 246.137C334.672 246.09 334.969 246.154 335.167 246.33C334.969 242.964 334.374 238.448 333.384 232.783C332.592 227.094 331.701 220.42 330.711 212.761C328.137 215.857 325.563 219.352 322.989 223.246L317.642 231.057C316.85 232.148 315.959 232.752 314.969 232.869C313.781 233.009 312.89 232.517 312.296 231.391C311.504 230.288 311.603 228.98 312.593 227.467L317.345 220.624C319.523 216.976 321.504 213.352 323.286 209.752C324.87 206.573 326.256 203.219 327.444 199.688C328.632 195.959 329.226 192.598 329.226 189.607V184.822C329.226 180.236 330.81 176.16 333.978 172.595C337.147 169.029 340.117 167.083 342.889 166.755C344.671 166.544 346.354 166.843 347.938 167.652C349.721 168.239 351.206 169.06 352.394 170.116C353.582 171.172 354.374 172.374 354.77 173.723C355.166 174.873 354.869 176.004 353.879 177.118C352.295 179.101 350.513 181.305 348.532 183.733C346.552 185.961 345.562 189.269 345.562 193.656C345.562 198.042 346.057 202.371 347.047 206.64C348.235 210.886 349.523 215.121 350.909 219.343C352.295 223.366 353.681 227.39 355.067 231.413C356.453 235.237 357.443 239.108 358.037 243.025C361.601 240.211 365.067 236.809 368.433 232.822C371.997 228.612 375.561 224.202 379.126 219.593Z" fill="#EDC52F"/>
          <path d="M29.9199 318.948C28.3358 319.135 25.9597 318.918 22.7914 318.296C19.8212 317.451 16.752 316.12 13.5838 314.301C10.4156 312.483 7.7424 310.008 5.56425 306.876C3.18808 303.768 2 300.02 2 295.633C2 289.651 3.78212 282.262 7.34637 273.466C10.9106 264.47 15.2669 255.879 20.4153 247.692C25.5636 239.306 31.108 232.07 37.0484 225.983C42.9888 219.897 48.3352 216.572 53.0875 216.01C56.8498 215.564 60.414 215.84 63.7803 216.838C67.1465 217.835 70.0177 219.19 72.3939 220.903C74.9681 222.592 76.9482 224.551 78.3343 226.78C79.9184 228.786 80.7104 230.586 80.7104 232.181C80.7104 234.773 80.0174 237.747 78.6313 241.101C77.2452 244.455 75.5621 247.646 73.582 250.671C71.7998 253.674 69.9187 256.289 67.9386 258.518C66.1564 260.523 64.6713 261.596 63.4833 261.737C61.8991 261.924 60.414 261.701 59.0279 261.068C57.8399 260.211 56.8498 259.332 56.0577 258.428C55.2657 257.525 54.8697 256.675 54.8697 255.877C55.0677 254.857 55.7607 254.276 56.9488 254.136C58.1369 253.995 59.721 252.611 61.7011 249.984C63.8793 247.333 65.6614 244.431 67.0475 241.276C68.4336 238.121 69.2257 235.335 69.4237 232.919C69.8197 230.479 68.8296 229.4 66.4535 229.681C63.8793 229.986 60.414 232.39 56.0577 236.894C51.8995 241.174 47.7412 246.651 43.5829 253.325C39.6226 259.775 36.1574 266.965 33.1872 274.894C30.217 282.822 28.7319 290.475 28.7319 297.853C28.7319 301.841 30.613 303.612 34.3752 303.167C39.1276 302.604 43.9789 300.734 48.9292 297.556C54.0776 294.155 59.127 290.068 64.0773 285.295C69.2257 280.498 74.077 275.338 78.6313 269.814C83.3836 264.067 87.6409 258.678 91.4032 253.647C92.1952 252.556 93.1853 251.94 94.3734 251.8C95.5615 251.659 96.4525 252.152 97.0466 253.278C97.6406 254.404 97.4426 255.724 96.4525 257.236C92.6903 262.866 88.334 269.164 83.3836 276.131C78.6313 282.874 73.3839 289.278 67.6415 295.341C62.0972 301.381 56.0577 306.682 49.5233 311.244C43.1869 315.583 36.6524 318.151 29.9199 318.948Z" stroke-width="4" mask="url(#path-5-outside-1_57_36)"/>
          <path d="M141.771 147.788C144.148 147.507 146.524 147.923 148.9 149.038C151.474 150.129 153.652 151.566 155.434 153.349C157.216 155.132 158.405 156.986 158.999 158.909C159.791 160.809 159.593 162.428 158.405 163.765C155.83 166.662 152.761 171.611 149.197 178.613C145.633 185.416 141.87 193.239 137.91 202.082C134.148 210.702 130.386 219.722 126.623 229.14C122.861 238.359 119.396 246.944 116.228 254.896C113.257 262.825 110.782 269.498 108.802 274.917C107.02 280.312 106.129 283.309 106.129 283.907C106.129 285.502 106.723 286.229 107.911 286.089C110.287 285.807 113.356 283.849 117.119 280.213C120.881 276.578 124.544 272.555 128.108 268.145C131.871 263.513 135.237 259.226 138.207 255.285C141.177 251.145 143.058 248.53 143.851 247.439C144.643 246.349 145.633 245.733 146.821 245.592C148.009 245.452 148.9 245.944 149.494 247.07C150.088 248.196 149.89 249.516 148.9 251.029C148.702 251.451 147.613 253.275 145.633 256.5C143.653 259.526 141.177 263.209 138.207 267.548C135.237 271.888 131.871 276.573 128.108 281.605C124.544 286.413 120.782 291.046 116.822 295.502C113.059 299.736 109.297 303.372 105.535 306.409C101.773 309.247 98.4064 310.842 95.4362 311.194C94.2481 311.334 92.664 311.023 90.6838 310.261C88.5057 309.521 86.5256 308.559 84.7434 307.375C82.7633 306.014 81.0802 304.418 79.6941 302.589C78.308 300.759 77.6149 298.847 77.6149 296.853C77.6149 294.061 79.001 288.513 81.7732 280.21C84.3474 271.73 87.7136 262.059 91.8719 251.199C96.0302 240.138 100.585 228.633 105.535 216.681C110.683 204.507 115.634 193.353 120.386 183.219C125.138 173.086 129.396 164.706 133.158 158.079C137.118 151.429 139.989 147.999 141.771 147.788Z" mask="url(#path-5-outside-1_57_36)"/>
          <path d="M246.548 235.284C247.34 234.193 248.33 233.578 249.518 233.437C250.706 233.297 251.597 233.789 252.191 234.915C252.785 236.041 252.587 237.361 251.597 238.874C247.835 244.503 243.676 250.778 239.122 257.698C234.766 264.395 230.113 270.728 225.162 276.698C220.41 282.644 215.658 287.792 210.905 292.143C206.153 296.295 201.599 298.628 197.242 299.144C196.252 299.261 194.767 298.939 192.787 298.176C191.005 297.39 189.124 296.316 187.144 294.956C185.361 293.571 183.777 291.964 182.391 290.134C181.005 288.305 180.312 286.492 180.312 284.698C180.312 281.906 181.104 278.323 182.688 273.948C184.272 269.573 185.856 265.099 187.441 260.525C183.876 265.931 180.015 271.274 175.857 276.551C171.897 281.806 167.837 286.573 163.679 290.854C159.719 294.912 155.758 298.371 151.798 301.233C147.838 303.895 144.274 305.413 141.105 305.788C139.125 306.023 137.244 305.547 135.462 304.363C133.68 303.178 132.096 301.67 130.71 299.84C129.324 297.811 128.235 295.647 127.442 293.348C126.452 290.873 125.957 288.539 125.957 286.346C125.957 283.355 127.046 279.238 129.225 273.995C131.403 268.752 134.373 263.017 138.135 256.789C141.699 250.386 145.66 243.935 150.016 237.438C154.57 230.917 159.125 224.994 163.679 219.669C168.431 214.122 172.986 209.595 177.342 206.089C181.698 202.383 185.46 200.342 188.629 199.967C192.787 199.475 196.846 200.091 200.807 201.816C204.767 203.54 208.331 205.81 211.499 208.626C214.667 211.441 217.341 214.515 219.519 217.846C221.697 220.978 223.083 223.805 223.677 226.326C223.677 226.725 223.776 227.013 223.974 227.189V228.086C223.974 229.282 223.182 231.968 221.598 236.144C220.014 240.12 218.232 244.518 216.252 249.338C214.469 253.936 212.786 258.422 211.202 262.797C209.618 267.172 208.826 270.256 208.826 272.051C208.826 273.447 209.42 274.074 210.608 273.934C212.984 273.652 215.46 272.462 218.034 270.363C220.608 268.064 223.38 265.244 226.35 261.901C229.321 258.359 232.489 254.296 235.855 249.71C239.221 245.124 242.785 240.316 246.548 235.284ZM157.145 280.561C157.937 280.467 159.62 279.071 162.194 276.374C164.966 273.653 168.035 270.299 171.401 266.311C174.966 262.101 178.629 257.679 182.391 253.047C186.154 248.215 189.619 243.617 192.787 239.254C196.153 234.868 198.826 231.062 200.807 227.837C202.985 224.389 204.074 222.166 204.074 221.169C204.074 219.574 203.678 218.026 202.886 216.524C202.094 215.023 200.609 214.302 198.43 214.36C196.846 214.547 194.668 216.002 191.896 218.722C189.124 221.244 186.055 224.498 182.688 228.486C179.52 232.45 176.253 236.924 172.887 241.909C169.718 246.671 166.748 251.409 163.976 256.124C161.402 260.616 159.224 264.861 157.442 268.861C155.857 272.837 155.065 275.822 155.065 277.816C155.065 279.81 155.758 280.725 157.145 280.561Z" mask="url(#path-5-outside-1_57_36)"/>
          <path d="M312.992 227.42C313.784 226.329 314.675 225.725 315.665 225.608C316.853 225.468 317.744 225.96 318.338 227.086C319.131 228.189 319.032 229.497 318.041 231.01C310.319 244.685 301.606 255.387 291.904 263.115C290.914 267.021 289.032 270.833 286.26 274.551C283.488 278.069 280.32 281.335 276.756 284.349C273.191 287.164 269.528 289.492 265.766 291.333C262.004 293.174 258.439 294.294 255.073 294.692C253.093 294.926 250.816 294.598 248.242 293.706C245.865 292.99 243.687 291.852 241.707 290.292C239.529 288.755 237.747 286.972 236.361 284.943C234.975 282.914 234.282 280.802 234.282 278.609C234.282 276.815 234.777 275.46 235.767 274.545C236.757 273.63 237.747 273.114 238.737 272.997C239.529 272.903 240.222 273.021 240.816 273.349C241.212 273.502 241.608 273.754 242.004 274.106C242.4 274.458 242.895 274.798 243.489 275.127C243.885 275.478 244.578 275.596 245.568 275.479C246.361 275.385 248.44 274.939 251.806 274.142C255.172 273.345 258.538 271.75 261.905 269.358C260.32 267.95 259.528 266.05 259.528 263.657C259.528 261.264 260.32 259.177 261.905 257.394C263.687 255.389 265.766 254.245 268.142 253.964C268.538 253.917 268.835 253.982 269.033 254.158C268.835 250.791 268.241 246.276 267.251 240.61C266.459 234.922 265.568 228.248 264.578 220.588C262.004 223.685 259.429 227.18 256.855 231.073L251.509 238.884C250.717 239.975 249.826 240.579 248.836 240.696C247.648 240.837 246.757 240.344 246.163 239.218C245.37 238.115 245.469 236.808 246.46 235.295L251.212 228.451C253.39 224.804 255.37 221.18 257.152 217.579C258.736 214.401 260.122 211.046 261.311 207.516C262.499 203.786 263.093 200.426 263.093 197.435V192.649C263.093 188.063 264.677 183.987 267.845 180.422C271.013 176.857 273.983 174.91 276.756 174.582C278.538 174.371 280.221 174.67 281.805 175.48C283.587 176.066 285.072 176.888 286.26 177.943C287.448 178.999 288.24 180.202 288.636 181.55C289.032 182.7 288.735 183.832 287.745 184.946C286.161 186.928 284.379 189.133 282.399 191.561C280.419 193.789 279.429 197.096 279.429 201.483C279.429 205.87 279.924 210.198 280.914 214.467C282.102 218.714 283.389 222.948 284.775 227.171C286.161 231.194 287.547 235.217 288.933 239.24C290.32 243.064 291.31 246.935 291.904 250.853C295.468 248.038 298.933 244.637 302.299 240.649C305.864 236.439 309.428 232.029 312.992 227.42Z" stroke-width="4" mask="url(#path-5-outside-1_57_36)"/>
          <path d="M379.126 219.593C379.918 218.502 380.809 217.898 381.799 217.781C382.987 217.64 383.878 218.133 384.472 219.259C385.264 220.362 385.165 221.669 384.175 223.182C376.452 236.858 367.74 247.56 358.037 255.288C357.047 259.194 355.166 263.005 352.394 266.723C349.622 270.242 346.453 273.508 342.889 276.522C339.325 279.337 335.662 281.664 331.899 283.505C328.137 285.347 324.573 286.466 321.207 286.865C319.226 287.099 316.949 286.77 314.375 285.879C311.999 285.163 309.821 284.025 307.841 282.465C305.663 280.928 303.88 279.145 302.494 277.116C301.108 275.086 300.415 272.975 300.415 270.782C300.415 268.987 300.91 267.632 301.9 266.718C302.89 265.803 303.88 265.287 304.87 265.17C305.663 265.076 306.356 265.193 306.95 265.522C307.346 265.674 307.742 265.927 308.138 266.279C308.534 266.63 309.029 266.971 309.623 267.299C310.019 267.651 310.712 267.768 311.702 267.651C312.494 267.558 314.573 267.112 317.939 266.315C321.306 265.518 324.672 263.923 328.038 261.53C326.454 260.123 325.662 258.223 325.662 255.83C325.662 253.437 326.454 251.349 328.038 249.567C329.82 247.561 331.899 246.418 334.276 246.137C334.672 246.09 334.969 246.154 335.167 246.33C334.969 242.964 334.374 238.448 333.384 232.783C332.592 227.094 331.701 220.42 330.711 212.761C328.137 215.857 325.563 219.352 322.989 223.246L317.642 231.057C316.85 232.148 315.959 232.752 314.969 232.869C313.781 233.009 312.89 232.517 312.296 231.391C311.504 230.288 311.603 228.98 312.593 227.467L317.345 220.624C319.523 216.976 321.504 213.352 323.286 209.752C324.87 206.573 326.256 203.219 327.444 199.688C328.632 195.959 329.226 192.598 329.226 189.607V184.822C329.226 180.236 330.81 176.16 333.978 172.595C337.147 169.029 340.117 167.083 342.889 166.755C344.671 166.544 346.354 166.843 347.938 167.652C349.721 168.239 351.206 169.06 352.394 170.116C353.582 171.172 354.374 172.374 354.77 173.723C355.166 174.873 354.869 176.004 353.879 177.118C352.295 179.101 350.513 181.305 348.532 183.733C346.552 185.961 345.562 189.269 345.562 193.656C345.562 198.042 346.057 202.371 347.047 206.64C348.235 210.886 349.523 215.121 350.909 219.343C352.295 223.366 353.681 227.39 355.067 231.413C356.453 235.237 357.443 239.108 358.037 243.025C361.601 240.211 365.067 236.809 368.433 232.822C371.997 228.612 375.561 224.202 379.126 219.593Z" stroke-width="4" mask="url(#path-5-outside-1_57_36)"/>
          </svg>