<svg width="508" height="509" viewBox="0 0 508 509" fill="none" xmlns="http://www.w3.org/2000/svg">
<path d="M366.268 16.425L310.568 72.225L435.768 197.425L491.468 141.725C513.368 119.825 513.368 84.425 491.468 62.525L445.468 16.425C423.568 -5.475 388.168 -5.475 366.268 16.425ZM285.868 92.725L276.668 95.525L132.568 138.725C112.668 144.725 96.8681 159.925 90.2681 179.725L1.66814 443.925C-2.13186 455.225 0.668145 467.825 8.96815 476.325L162.568 322.825C159.568 316.525 157.868 309.525 157.868 302.125C157.868 275.625 179.368 254.125 205.868 254.125C232.368 254.125 253.868 275.625 253.868 302.125C253.868 328.625 232.368 350.125 205.868 350.125C198.468 350.125 191.468 348.425 185.168 345.425L31.5681 499.025C40.1681 507.325 52.6681 510.225 63.9681 506.325L328.268 417.725C347.968 411.125 363.268 395.325 369.268 375.425L412.468 231.325L415.268 222.125L285.868 92.725Z" fill="#96ADE8"/>
</svg>
